<svg xmlns="http://www.w3.org/2000/svg" xmlns:xlink="http://www.w3.org/1999/xlink" xmlns:lucid="lucid" width="1876" height="1347.27"><g transform="translate(5 1105)" lucid:page-tab-id="0_0"><path d="M0-1259.2h1870.4v2582.4H0z" fill="#fff"/><path d="M320-469.4h160v160H320z" stroke="#000" stroke-width="4" fill="#c1e4f7"/><use xlink:href="#a" transform="matrix(1,0,0,1,324.9999999999998,-464.4000000000001) translate(16.388888888889028 90.0113888888888)"/><path d="M480-469.4h160v160H480z" stroke="#000" stroke-width="4" fill="#c1e4f7"/><use xlink:href="#b" transform="matrix(1,0,0,1,484.9999999999998,-464.4000000000001) translate(16.666666666666657 89.82916666666667)"/><path d="M640-469.4h160v160H640z" stroke="#000" stroke-width="4" fill="#c1e4f7"/><use xlink:href="#c" transform="matrix(1,0,0,1,644.9999999999998,-464.4000000000001) translate(16.666666666666657 89.82916666666667)"/><path d="M800-469.4h160v160H800z" stroke="#000" stroke-width="4" fill="#c1e4f7"/><use xlink:href="#d" transform="matrix(1,0,0,1,804.9999999999998,-464.4000000000001) translate(16.666666666666657 89.82916666666667)"/><path d="M960-469.4h160v160H960z" stroke="#000" stroke-width="4" fill="#c1e4f7"/><use xlink:href="#e" transform="matrix(1,0,0,1,964.9999999999995,-464.4000000000001) translate(16.666666666666657 89.82916666666667)"/><path d="M320.67-621.27v11.87h1483.88" stroke="#999" stroke-width="10" fill="none"/><path d="M325.64-621.14h-9.95v-5.13h9.94z" stroke="#999" stroke-width=".05" fill="#999"/><path d="M1823.82-609.4l-14.27 4.63v-9.26z" stroke="#999" stroke-width="10" fill="#999"/><path d="M1120-469.4h160v160h-160z" stroke="#000" stroke-width="4" fill="#c1e4f7"/><use xlink:href="#f" transform="matrix(1,0,0,1,1124.9999999999998,-464.4000000000001) translate(16.666666666666657 89.82916666666667)"/><path d="M1280-469.4h160v160h-160z" stroke="#000" stroke-width="4" fill="#c1e4f7"/><use xlink:href="#g" transform="matrix(1,0,0,1,1284.9999999999998,-464.4000000000001) translate(16.666666666666657 89.82916666666667)"/><path d="M1440-469.4h160v160h-160z" stroke="#000" stroke-width="4" fill="#c1e4f7"/><use xlink:href="#h" transform="matrix(1,0,0,1,1444.9999999999998,-464.4000000000001) translate(16.666666666666657 89.82916666666667)"/><path d="M1600-469.4h160v160h-160z" stroke="#000" stroke-width="4" fill="#c1e4f7"/><use xlink:href="#i" transform="matrix(1,0,0,1,1604.9999999999998,-464.4000000000001) translate(16.666666666666657 89.82916666666667)"/><path d="M480-621.27v3.44h2.77v3.43" stroke="#999" stroke-width="10" fill="none"/><path d="M484.98-621.14h-9.96v-5.13h9.96z" stroke="#999" stroke-width=".05" fill="#999"/><path d="M482.77-614.53v5.13" stroke="#999" stroke-width="10" fill="none"/><path d="M430-692.53h100v66.26H430z" stroke="#000" stroke-opacity="0" stroke-width="10" fill="#fff" fill-opacity="0"/><use xlink:href="#j" transform="matrix(1,0,0,1,434.9999999999998,-687.5333333333334) translate(31.97530864197531 41.073611111111106)"/><path d="M639.33-621.27v6.87" stroke="#999" stroke-width="10" fill="none"/><path d="M644.3-621.14h-9.94v-5.13h9.95z" stroke="#999" stroke-width=".05" fill="#999"/><path d="M639.33-614.53v5.13" stroke="#999" stroke-width="10" fill="none"/><path d="M589.33-692.53h100v66.26h-100z" stroke="#000" stroke-opacity="0" stroke-width="10" fill="#fff" fill-opacity="0"/><use xlink:href="#k" transform="matrix(1,0,0,1,594.333333333333,-687.5333333333334) translate(18.95061728395062 41.073611111111106)"/><path d="M798.67-621.27v6.87" stroke="#999" stroke-width="10" fill="none"/><path d="M803.64-621.14h-9.95v-5.13h9.94z" stroke="#999" stroke-width=".05" fill="#999"/><path d="M798.67-614.53v5.13" stroke="#999" stroke-width="10" fill="none"/><path d="M748.67-692.53h100v66.26h-100z" stroke="#000" stroke-opacity="0" stroke-width="10" fill="#fff" fill-opacity="0"/><use xlink:href="#l" transform="matrix(1,0,0,1,753.6666666666663,-687.5333333333334) translate(18.95061728395062 41.073611111111106)"/><path d="M958-621.27v6.87" stroke="#999" stroke-width="10" fill="none"/><path d="M962.98-621.14H953v-5.13H963z" stroke="#999" stroke-width=".05" fill="#999"/><path d="M958-614.53v5.13" stroke="#999" stroke-width="10" fill="none"/><path d="M908-692.53h100v66.26H908z" stroke="#000" stroke-opacity="0" stroke-width="10" fill="#fff" fill-opacity="0"/><use xlink:href="#m" transform="matrix(1,0,0,1,912.9999999999997,-687.5333333333334) translate(18.95061728395062 41.073611111111106)"/><path d="M1120.33-621.27v6.87" stroke="#999" stroke-width="10" fill="none"/><path d="M1125.3-621.14h-9.94v-5.13h9.95z" stroke="#999" stroke-width=".05" fill="#999"/><path d="M1120.33-614.53v5.13" stroke="#999" stroke-width="10" fill="none"/><path d="M1070.33-692.53h100v66.26h-100z" stroke="#000" stroke-opacity="0" stroke-width="10" fill="#fff" fill-opacity="0"/><use xlink:href="#n" transform="matrix(1,0,0,1,1075.3333333333328,-687.5333333333334) translate(18.95061728395062 41.073611111111106)"/><path d="M1282.67-621.27v6.87" stroke="#999" stroke-width="10" fill="none"/><path d="M1287.64-621.14h-9.95v-5.13h9.94z" stroke="#999" stroke-width=".05" fill="#999"/><path d="M1282.67-614.53v5.13" stroke="#999" stroke-width="10" fill="none"/><path d="M1232.67-692.53h100v66.26h-100z" stroke="#000" stroke-opacity="0" stroke-width="10" fill="#fff" fill-opacity="0"/><use xlink:href="#o" transform="matrix(1,0,0,1,1237.666666666666,-687.5333333333334) translate(18.95061728395062 41.073611111111106)"/><path d="M1443-621.27v6.87" stroke="#999" stroke-width="10" fill="none"/><path d="M1447.97-621.14h-9.94v-5.13h9.94z" stroke="#999" stroke-width=".05" fill="#999"/><path d="M1443-614.53v5.13" stroke="#999" stroke-width="10" fill="none"/><path d="M1393-692.53h100v66.26h-100z" stroke="#000" stroke-opacity="0" stroke-width="10" fill="#fff" fill-opacity="0"/><use xlink:href="#p" transform="matrix(1,0,0,1,1397.9999999999993,-687.5333333333334) translate(18.95061728395062 41.073611111111106)"/><path d="M1603.33-621.27v6.87" stroke="#999" stroke-width="10" fill="none"/><path d="M1608.3-621.14h-9.94v-5.13h9.95z" stroke="#999" stroke-width=".05" fill="#999"/><path d="M1603.33-614.53v5.13" stroke="#999" stroke-width="10" fill="none"/><path d="M1553.33-692.53h100v66.26h-100z" stroke="#000" stroke-opacity="0" stroke-width="10" fill="#fff" fill-opacity="0"/><use xlink:href="#q" transform="matrix(1,0,0,1,1558.3333333333326,-687.5333333333334) translate(18.95061728395062 41.073611111111106)"/><path d="M1763.67-621.27v6.87" stroke="#999" stroke-width="10" fill="none"/><path d="M1768.64-621.14h-9.95v-5.13h9.94z" stroke="#999" stroke-width=".05" fill="#999"/><path d="M1763.67-614.53v5.13" stroke="#999" stroke-width="10" fill="none"/><path d="M1713.67-692.53h100v66.26h-100z" stroke="#000" stroke-opacity="0" stroke-width="10" fill="#fff" fill-opacity="0"/><use xlink:href="#r" transform="matrix(1,0,0,1,1718.6666666666658,-687.5333333333334) translate(18.95061728395062 41.073611111111106)"/><path d="M20-720.67h240v122.54H20z" stroke="#000" stroke-opacity="0" stroke-width="10" fill="#fff" fill-opacity="0"/><use xlink:href="#s" transform="matrix(1,0,0,1,25,-715.6666666666667) translate(13.407407407407419 65.7611111111111)"/><use xlink:href="#t" transform="matrix(1,0,0,1,25,-715.6666666666667) translate(52.48148148148149 65.7611111111111)"/><use xlink:href="#u" transform="matrix(1,0,0,1,25,-715.6666666666667) translate(104.58024691358025 65.7611111111111)"/><path d="M320.67-621.27v6.87" stroke="#999" stroke-width="10" fill="none"/><path d="M325.64-621.14h-9.95v-5.13h9.94z" stroke="#999" stroke-width=".05" fill="#999"/><path d="M320.67-614.53v5.13" stroke="#999" stroke-width="10" fill="none"/><path d="M270.67-692.53h100v66.26h-100z" stroke="#000" stroke-opacity="0" stroke-width="10" fill="#fff" fill-opacity="0"/><use xlink:href="#v" transform="matrix(1,0,0,1,275.6666666666665,-687.5333333333334) translate(31.97530864197531 41.073611111111106)"/><path d="M20-457.53h240V-335H20z" stroke="#000" stroke-opacity="0" stroke-width="10" fill="#fff" fill-opacity="0"/><use xlink:href="#w" transform="matrix(1,0,0,1,25,-452.5333333333334) translate(31.707098765432107 41.042361111111106)"/><use xlink:href="#x" transform="matrix(1,0,0,1,25,-452.5333333333334) translate(61.72901234567902 97.30902777777777)"/><path d="M320-249.93h160v160H320z" stroke="#000" stroke-width="4" fill="#c1e4f7"/><use xlink:href="#y" transform="matrix(1,0,0,1,325,-244.93196298017347) translate(37.870370370370395 94.72638888888883)"/><path d="M480-249.93h160v160H480z" stroke="#000" stroke-width="4" fill="#c1e4f7"/><use xlink:href="#z" transform="matrix(1,0,0,1,485,-244.93196298017347) translate(37.870370370370395 94.72638888888883)"/><path d="M640-249.93h160v160H640z" stroke="#000" stroke-width="4" fill="#c1e4f7"/><use xlink:href="#A" transform="matrix(1,0,0,1,645,-244.93196298017347) translate(37.870370370370395 94.72638888888883)"/><path d="M800-249.93h160v160H800z" stroke="#000" stroke-width="4" fill="#c1e4f7"/><use xlink:href="#B" transform="matrix(1,0,0,1,805,-244.93196298017347) translate(37.870370370370395 94.72638888888883)"/><path d="M960-249.93h160v160H960z" stroke="#000" stroke-width="4" fill="#c1e4f7"/><use xlink:href="#C" transform="matrix(1,0,0,1,965,-244.93196298017347) translate(37.870370370370395 94.72638888888883)"/><path d="M1120-249.93h160v160h-160z" stroke="#000" stroke-width="4" fill="#c1e4f7"/><use xlink:href="#D" transform="matrix(1,0,0,1,1125,-244.93196298017347) translate(37.870370370370395 94.72638888888883)"/><path d="M1280-249.93h160v160h-160z" stroke="#000" stroke-width="4" fill="#c1e4f7"/><use xlink:href="#E" transform="matrix(1,0,0,1,1285,-244.93196298017347) translate(37.870370370370395 94.72638888888883)"/><path d="M1440-249.93h160v160h-160z" stroke="#000" stroke-width="4" fill="#c1e4f7"/><use xlink:href="#F" transform="matrix(1,0,0,1,1445,-244.93196298017347) translate(37.870370370370395 94.72638888888883)"/><path d="M1600-249.93h160v160h-160z" stroke="#000" stroke-width="4" fill="#c1e4f7"/><use xlink:href="#G" transform="matrix(1,0,0,1,1605,-244.93196298017347) translate(37.870370370370395 94.72638888888883)"/><path d="M20-256.8h240v160H20z" stroke="#000" stroke-opacity="0" stroke-width="10" fill="#fff" fill-opacity="0"/><use xlink:href="#H" transform="matrix(1,0,0,1,25.000000000000227,-251.79862964684025) translate(59.058950617283955 56.261111111111106)"/><use xlink:href="#I" transform="matrix(1,0,0,1,25.000000000000227,-251.79862964684025) translate(30.53487654320989 112.52777777777776)"/><use xlink:href="#J" transform="matrix(1,0,0,1,25.000000000000227,-251.79862964684025) translate(111.15771604938271 112.52777777777776)"/><path d="M420-1080h1260v213.47H420z" stroke="#000" stroke-opacity="0" stroke-width="10" fill="#fff" fill-opacity="0"/><use xlink:href="#K" transform="matrix(1,0,0,1,425,-1075) translate(0 44.641666666666666)"/><use xlink:href="#L" transform="matrix(1,0,0,1,425,-1075) translate(46.66666666666667 44.641666666666666)"/><use xlink:href="#M" transform="matrix(1,0,0,1,425,-1075) translate(93.33333333333334 44.641666666666666)"/><use xlink:href="#N" transform="matrix(1,0,0,1,425,-1075) translate(420 44.641666666666666)"/><use xlink:href="#O" transform="matrix(1,0,0,1,425,-1075) translate(513.3333333333334 44.641666666666666)"/><use xlink:href="#P" transform="matrix(1,0,0,1,425,-1075) translate(606.6666666666667 44.641666666666666)"/><use xlink:href="#Q" transform="matrix(1,0,0,1,425,-1075) translate(700.0000000000001 44.641666666666666)"/><use xlink:href="#R" transform="matrix(1,0,0,1,425,-1075) translate(793.3333333333335 44.641666666666666)"/><use xlink:href="#S" transform="matrix(1,0,0,1,425,-1075) translate(886.6666666666669 44.641666666666666)"/><use xlink:href="#T" transform="matrix(1,0,0,1,425,-1075) translate(980.0000000000002 44.641666666666666)"/><use xlink:href="#U" transform="matrix(1,0,0,1,425,-1075) translate(1073.3333333333335 44.641666666666666)"/><use xlink:href="#V" transform="matrix(1,0,0,1,425,-1075) translate(0 95.50833333333333)"/><use xlink:href="#W" transform="matrix(1,0,0,1,425,-1075) translate(186.6666666666667 95.50833333333333)"/><use xlink:href="#X" transform="matrix(1,0,0,1,425,-1075) translate(249.01333333333338 95.50833333333333)"/><use xlink:href="#L" transform="matrix(1,0,0,1,425,-1075) translate(645.6800000000001 95.50833333333333)"/><use xlink:href="#Y" transform="matrix(1,0,0,1,425,-1075) translate(692.3466666666667 95.50833333333333)"/><use xlink:href="#Z" transform="matrix(1,0,0,1,425,-1075) translate(762.3466666666667 95.50833333333333)"/><use xlink:href="#L" transform="matrix(1,0,0,1,425,-1075) translate(879.0133333333333 95.50833333333333)"/><use xlink:href="#aa" transform="matrix(1,0,0,1,425,-1075) translate(925.68 95.50833333333333)"/><use xlink:href="#ab" transform="matrix(1,0,0,1,425,-1075) translate(972.3466666666666 95.50833333333333)"/><use xlink:href="#ac" transform="matrix(1,0,0,1,425,-1075) translate(0 146.375)"/><use xlink:href="#ad" transform="matrix(1,0,0,1,425,-1075) translate(186.6666666666667 146.375)"/><use xlink:href="#ae" transform="matrix(1,0,0,1,425,-1075) translate(249.01333333333338 146.375)"/><use xlink:href="#af" transform="matrix(1,0,0,1,425,-1075) translate(645.6800000000001 146.375)"/><use xlink:href="#ad" transform="matrix(1,0,0,1,425,-1075) translate(902.3466666666668 146.375)"/><use xlink:href="#ag" transform="matrix(1,0,0,1,425,-1075) translate(964.6933333333335 146.375)"/><use xlink:href="#ah" transform="matrix(1,0,0,1,425,-1075) translate(0 197.24166666666667)"/><use xlink:href="#ad" transform="matrix(1,0,0,1,425,-1075) translate(233.3333333333334 197.24166666666667)"/><use xlink:href="#ai" transform="matrix(1,0,0,1,425,-1075) translate(295.68000000000006 197.24166666666667)"/><use xlink:href="#aj" transform="matrix(1,0,0,1,425,-1075) translate(645.6800000000001 197.24166666666667)"/><use xlink:href="#ad" transform="matrix(1,0,0,1,425,-1075) translate(855.6800000000001 197.24166666666667)"/><use xlink:href="#ak" transform="matrix(1,0,0,1,425,-1075) translate(918.0266666666668 197.24166666666667)"/><path d="M560-476.4v-59.3h-80v-28.85" stroke="#c92d39" stroke-width="10" fill="none"/><path d="M564.98-471.4H555v-5.13H565z" stroke="#c92d39" stroke-width=".05" fill="#c92d39"/><path d="M480-583.82l4.63 14.27h-9.26z" stroke="#c92d39" stroke-width="10" fill="#c92d39"/><path d="M321-710.8l1.32-4.8 1.66-4.8 2-4.8 2.4-4.8 2.78-4.85 3.24-4.86 3.72-4.88 4.22-4.86 4.75-4.8 5.23-4.66 5.67-4.43 5.95-4.06 6-3.54 5.76-2.94 5.26-2.27 4.55-1.63 3.8-1.1 3.05-.66 2.44-.37 1.93-.18 1.34-.04 1.34.04 1.7.16 2.1.33 2.7.6 3.4.96 4.26 1.5 5.17 2.16 6 2.96 6.52 3.74 6.7 4.38 6.5 4.84 6 5.08 5.38 5.14 4.72 5.1 4.07 4.96.36.5" stroke="#c92d39" stroke-width="10" stroke-linejoin="round" fill="none"/><path d="M321.04-710.92L320-705.9" stroke="#c92d39" stroke-width="10" fill="none"/><path d="M473.08-720.53l-10.28-10.92 8.38-3.96z" stroke="#c92d39" stroke-width="10" fill="#c92d39"/><path d="M500-840h1080v192.4H500z" stroke="#000" stroke-opacity="0" stroke-width="10" fill="#fff" fill-opacity="0"/><g><use xlink:href="#al" transform="matrix(1,0,0,1,504.999754705093,-835) translate(0 99.02499999999998)"/><use xlink:href="#am" transform="matrix(1,0,0,1,504.999754705093,-835) translate(103.33888888888885 99.02499999999998)"/><use xlink:href="#an" transform="matrix(1,0,0,1,504.999754705093,-835) translate(135.0055555555555 99.02499999999998)"/><use xlink:href="#ao" transform="matrix(1,0,0,1,504.999754705093,-835) translate(244.5722222222221 99.02499999999998)"/><use xlink:href="#ap" transform="matrix(1,0,0,1,504.999754705093,-835) translate(286.7944444444443 99.02499999999998)"/><use xlink:href="#ao" transform="matrix(1,0,0,1,504.999754705093,-835) translate(350.1277777777776 99.02499999999998)"/><use xlink:href="#aq" transform="matrix(1,0,0,1,504.999754705093,-835) translate(392.3499999999998 99.02499999999998)"/><use xlink:href="#ar" transform="matrix(1,0,0,1,504.999754705093,-835) translate(455.6833333333331 99.02499999999998)"/><use xlink:href="#as" transform="matrix(1,0,0,1,504.999754705093,-835) translate(538.0166666666664 99.02499999999998)"/></g><path d="M329.33 60.27h160v160h-160z" stroke="#000" stroke-width="4" fill="#c7e8ac"/><g><use xlink:href="#y" transform="matrix(1,0,0,1,334.333333333333,65.26677739945558) translate(37.870370370370395 94.72638888888883)"/></g><path d="M489.33 60.27h160v160h-160z" stroke="#000" stroke-width="4" fill="#c7e8ac"/><g><use xlink:href="#z" transform="matrix(1,0,0,1,494.33333333333303,65.26677739945558) translate(37.870370370370395 94.72638888888883)"/></g><path d="M649.33 60.27h160v160h-160z" stroke="#000" stroke-width="4" fill="#c7e8ac"/><g><use xlink:href="#A" transform="matrix(1,0,0,1,654.333333333333,65.26677739945558) translate(37.870370370370395 94.72638888888883)"/></g><path d="M421.04 49.48l.95-3.55 1.4-4.2 1.72-4.26 2.04-4.28 2.4-4.35 2.8-4.4 3.23-4.47 3.7-4.53 4.26-4.57 4.8-4.58 5.35-4.5 5.87-4.38 6.23-4.08 6.37-3.64 6.2-3.07 5.68-2.4 4.92-1.72 4.05-1.15 3.23-.7 2.53-.4 1.97-.2 1.54-.05h.06l1.4.05 1.7.16 2.14.36 2.64.6 3.3 1 4.06 1.5 4.87 2.18 5.62 2.96 6.14 3.75 6.36 4.47 6.23 5 5.82 5.3 5.25 5.47 4.6 5.45 3.02 4.05" stroke="#c92d39" stroke-width="10" stroke-linejoin="round" fill="none"/><path d="M421.03 49.34L420 54.36" stroke="#c92d39" stroke-width="10" fill="none"/><path d="M573.34 39.62l-10.1-11.1 8.45-3.8z" stroke="#c92d39" stroke-width="10" fill="#c92d39"/><path d="M810 60.27h160v160H810z" stroke="#000" stroke-width="4" fill="#c7e8ac"/><g><use xlink:href="#B" transform="matrix(1,0,0,1,815,65.26677739945558) translate(37.870370370370395 94.72638888888883)"/></g><path d="M970 60.27h160v160H970z" stroke="#000" stroke-width="4" fill="#c7e8ac"/><g><use xlink:href="#C" transform="matrix(1,0,0,1,975,65.26677739945558) translate(37.870370370370395 94.72638888888883)"/></g><path d="M1130 60.27h160v160h-160z" stroke="#000" stroke-width="4" fill="#c7e8ac"/><g><use xlink:href="#D" transform="matrix(1,0,0,1,1135,65.26677739945558) translate(37.870370370370395 94.72638888888883)"/></g><path d="M1290 60h160v160h-160z" stroke="#000" stroke-width="4" fill="#c7e8ac"/><g><use xlink:href="#E" transform="matrix(1,0,0,1,1295,65) translate(37.870370370370395 94.72638888888883)"/></g><path d="M1450 60h160v160h-160z" stroke="#000" stroke-width="4" fill="#c7e8ac"/><g><use xlink:href="#F" transform="matrix(1,0,0,1,1455,65) translate(37.870370370370395 94.72638888888883)"/></g><path d="M1610 60h160v160h-160z" stroke="#000" stroke-width="4" fill="#c7e8ac"/><g><use xlink:href="#G" transform="matrix(1,0,0,1,1615,65) translate(37.870370370370395 94.72638888888883)"/></g><path d="M400-476.4v-59.3h-80v-28.85" stroke="#4c535d" stroke-width="10" fill="none"/><path d="M404.98-471.4h-9.96v-5.13h9.96z" stroke="#4c535d" stroke-width=".05" fill="#4c535d"/><path d="M320-583.82l4.63 14.27h-9.26z" stroke="#4c535d" stroke-width="10" fill="#4c535d"/><path d="M720-476.4v-59.3h-80v-28.85" stroke="#4c535d" stroke-width="10" fill="none"/><path d="M724.98-471.4H715v-5.13H725z" stroke="#4c535d" stroke-width=".05" fill="#4c535d"/><path d="M640-583.82l4.63 14.27h-9.26z" stroke="#4c535d" stroke-width="10" fill="#4c535d"/><path d="M880-476.4v-59.3h-80v-28.85M880-476.53v5.13" stroke="#4c535d" stroke-width="10" fill="none"/><path d="M800-583.82l4.63 14.27h-9.26z" stroke="#4c535d" stroke-width="10" fill="#4c535d"/><path d="M1040-476.4v-59.3h-80v-28.85M1040-476.53v5.13" stroke="#4c535d" stroke-width="10" fill="none"/><path d="M960-583.82l4.63 14.27h-9.26z" stroke="#4c535d" stroke-width="10" fill="#4c535d"/><defs><path d="M251-627c96 0 199 113 199 326C450-87 342 11 252 11 153 11 50-105 50-307c0-199 102-320 201-320zm98 142c-27-55-65-81-99-81-62 0-135 88-135 247 0 44 5 84 14 118zm23 67L152-138c27 55 66 85 103 85 55 0 130-66 130-240 0-48-5-90-13-125" id="at"/><path d="M362-457h74L288-235 456 0h-82L248-178 129 0H47l161-232L50-457h79l119 169" id="au"/><g id="a"><use transform="matrix(0.04688888888888878,0,0,0.04688888888888878,0,0)" xlink:href="#at"/><use transform="matrix(0.04688888888888878,0,0,0.04688888888888878,23.44444444444439,0)" xlink:href="#au"/><use transform="matrix(0.04688888888888878,0,0,0.04688888888888878,46.88888888888878,0)" xlink:href="#at"/><use transform="matrix(0.04688888888888878,0,0,0.04688888888888878,70.33333333333317,0)" xlink:href="#at"/><use transform="matrix(0.04688888888888878,0,0,0.04688888888888878,93.77777777777756,0)" xlink:href="#at"/></g><path fill="#c92d39" d="M251-627c96 0 199 113 199 326C450-87 342 11 252 11 153 11 50-105 50-307c0-199 102-320 201-320zm98 142c-27-55-65-81-99-81-62 0-135 88-135 247 0 44 5 84 14 118zm23 67L152-138c27 55 66 85 103 85 55 0 130-66 130-240 0-48-5-90-13-125" id="av"/><path fill="#c92d39" d="M362-457h74L288-235 456 0h-82L248-178 129 0H47l161-232L50-457h79l119 169" id="aw"/><path fill="#c92d39" d="M258-631c91 0 162 66 162 148 0 60-39 118-99 150 70 32 120 99 120 172 0 95-82 171-191 171C143 10 60-64 60-157c0-72 51-139 125-174-56-29-95-85-95-146 0-84 73-154 168-154zm-21 328c-59 25-105 78-105 137 0 63 53 113 121 113 67 0 117-49 117-109 0-61-53-116-133-141zm16-269c-54 0-96 40-96 89 0 82 110 125 110 125 49-26 85-73 85-121 0-52-43-93-99-93" id="ax"/><g id="b"><use transform="matrix(0.04666666666666667,0,0,0.04666666666666667,0,0)" xlink:href="#av"/><use transform="matrix(0.04666666666666667,0,0,0.04666666666666667,23.333333333333336,0)" xlink:href="#aw"/><use transform="matrix(0.04666666666666667,0,0,0.04666666666666667,46.66666666666667,0)" xlink:href="#av"/><use transform="matrix(0.04666666666666667,0,0,0.04666666666666667,70,0)" xlink:href="#av"/><use transform="matrix(0.04666666666666667,0,0,0.04666666666666667,93.33333333333334,0)" xlink:href="#ax"/></g><path d="M298-624v570h112V1H116v-55h115v-483l-123 36-17-39 160-84h47" id="ay"/><g id="c"><use transform="matrix(0.04666666666666667,0,0,0.04666666666666667,0,0)" xlink:href="#at"/><use transform="matrix(0.04666666666666667,0,0,0.04666666666666667,23.333333333333336,0)" xlink:href="#au"/><use transform="matrix(0.04666666666666667,0,0,0.04666666666666667,46.66666666666667,0)" xlink:href="#at"/><use transform="matrix(0.04666666666666667,0,0,0.04666666666666667,70,0)" xlink:href="#ay"/><use transform="matrix(0.04666666666666667,0,0,0.04666666666666667,93.33333333333334,0)" xlink:href="#at"/></g><path d="M258-631c91 0 162 66 162 148 0 60-39 118-99 150 70 32 120 99 120 172 0 95-82 171-191 171C143 10 60-64 60-157c0-72 51-139 125-174-56-29-95-85-95-146 0-84 73-154 168-154zm-21 328c-59 25-105 78-105 137 0 63 53 113 121 113 67 0 117-49 117-109 0-61-53-116-133-141zm16-269c-54 0-96 40-96 89 0 82 110 125 110 125 49-26 85-73 85-121 0-52-43-93-99-93" id="az"/><g id="d"><use transform="matrix(0.04666666666666667,0,0,0.04666666666666667,0,0)" xlink:href="#at"/><use transform="matrix(0.04666666666666667,0,0,0.04666666666666667,23.333333333333336,0)" xlink:href="#au"/><use transform="matrix(0.04666666666666667,0,0,0.04666666666666667,46.66666666666667,0)" xlink:href="#at"/><use transform="matrix(0.04666666666666667,0,0,0.04666666666666667,70,0)" xlink:href="#ay"/><use transform="matrix(0.04666666666666667,0,0,0.04666666666666667,93.33333333333334,0)" xlink:href="#az"/></g><path d="M244-566c-67 0-104 39-115 80l-51-40c37-63 103-101 174-101 102 0 181 78 181 175 0 90-64 153-110 196-45 42-117 104-169 195h261c11 1 12-12 24-9V0H73v-44c52-104 110-168 181-232 45-41 110-95 110-171 0-67-54-119-120-119" id="aA"/><g id="e"><use transform="matrix(0.04666666666666667,0,0,0.04666666666666667,0,0)" xlink:href="#at"/><use transform="matrix(0.04666666666666667,0,0,0.04666666666666667,23.333333333333336,0)" xlink:href="#au"/><use transform="matrix(0.04666666666666667,0,0,0.04666666666666667,46.66666666666667,0)" xlink:href="#at"/><use transform="matrix(0.04666666666666667,0,0,0.04666666666666667,70,0)" xlink:href="#aA"/><use transform="matrix(0.04666666666666667,0,0,0.04666666666666667,93.33333333333334,0)" xlink:href="#at"/></g><g id="f"><use transform="matrix(0.04666666666666667,0,0,0.04666666666666667,0,0)" xlink:href="#at"/><use transform="matrix(0.04666666666666667,0,0,0.04666666666666667,23.333333333333336,0)" xlink:href="#au"/><use transform="matrix(0.04666666666666667,0,0,0.04666666666666667,46.66666666666667,0)" xlink:href="#at"/><use transform="matrix(0.04666666666666667,0,0,0.04666666666666667,70,0)" xlink:href="#aA"/><use transform="matrix(0.04666666666666667,0,0,0.04666666666666667,93.33333333333334,0)" xlink:href="#az"/></g><path d="M411-467c0 61-37 114-93 135 65 24 107 87 107 161 0 97-73 182-192 182-62 0-122-25-164-71l53-63c9 9 5 18 13 28 4 5 39 42 97 42 73 0 126-59 126-127 1-84-81-129-178-116v-56c59 0 87-11 98-16 103-41 81-197-42-195-39 0-78 17-107 48l-39-43c39-43 93-67 149-67 99 0 172 73 172 158" id="aB"/><g id="g"><use transform="matrix(0.04666666666666667,0,0,0.04666666666666667,0,0)" xlink:href="#at"/><use transform="matrix(0.04666666666666667,0,0,0.04666666666666667,23.333333333333336,0)" xlink:href="#au"/><use transform="matrix(0.04666666666666667,0,0,0.04666666666666667,46.66666666666667,0)" xlink:href="#at"/><use transform="matrix(0.04666666666666667,0,0,0.04666666666666667,70,0)" xlink:href="#aB"/><use transform="matrix(0.04666666666666667,0,0,0.04666666666666667,93.33333333333334,0)" xlink:href="#at"/></g><g id="h"><use transform="matrix(0.04666666666666667,0,0,0.04666666666666667,0,0)" xlink:href="#at"/><use transform="matrix(0.04666666666666667,0,0,0.04666666666666667,23.333333333333336,0)" xlink:href="#au"/><use transform="matrix(0.04666666666666667,0,0,0.04666666666666667,46.66666666666667,0)" xlink:href="#at"/><use transform="matrix(0.04666666666666667,0,0,0.04666666666666667,70,0)" xlink:href="#aB"/><use transform="matrix(0.04666666666666667,0,0,0.04666666666666667,93.33333333333334,0)" xlink:href="#az"/></g><path d="M313-624h59v390h80v62h-80V0h-73v-173H48v-51zm-13 111L117-234h183v-279" id="aC"/><g id="i"><use transform="matrix(0.04666666666666667,0,0,0.04666666666666667,0,0)" xlink:href="#at"/><use transform="matrix(0.04666666666666667,0,0,0.04666666666666667,23.333333333333336,0)" xlink:href="#au"/><use transform="matrix(0.04666666666666667,0,0,0.04666666666666667,46.66666666666667,0)" xlink:href="#at"/><use transform="matrix(0.04666666666666667,0,0,0.04666666666666667,70,0)" xlink:href="#aC"/><use transform="matrix(0.04666666666666667,0,0,0.04666666666666667,93.33333333333334,0)" xlink:href="#at"/></g><path d="M134-131c28 9 52 24 51 62-1 50-34 73-85 73S17-19 16-69c0-36 21-54 49-61-75-25-45-126 34-121 46 3 78 18 79 63 0 33-17 51-44 57zm-34-11c31 1 46-15 46-44 0-28-17-43-47-42-29 0-46 13-45 42 1 28 16 44 46 44zm1 122c35 0 51-18 51-52 0-30-18-46-53-46-33 0-51 17-51 47 0 34 19 51 53 51" id="aD"/><use transform="matrix(0.1302469135802469,0,0,0.1302469135802469,0,0)" xlink:href="#aD" id="j"/><path d="M27 0v-27h64v-190l-56 39v-29l58-41h29v221h61V0H27" id="aE"/><path d="M110-160c48 1 74 30 74 79 0 53-28 85-80 85-65 0-83-55-86-122-5-90 50-162 133-122 14 7 22 21 27 39l-31 6c-5-40-67-38-82-6-9 19-15 44-15 74 11-20 30-34 60-33zm-7 138c34 0 49-23 49-58s-16-56-50-56c-29 0-50 16-49 49 1 36 15 65 50 65" id="aF"/><g id="k"><use transform="matrix(0.1302469135802469,0,0,0.1302469135802469,0,0)" xlink:href="#aE"/><use transform="matrix(0.1302469135802469,0,0,0.1302469135802469,26.04938271604938,0)" xlink:href="#aF"/></g><path d="M101-251c82-7 93 87 43 132L82-64C71-53 59-42 53-27h129V0H18c2-99 128-94 128-182 0-28-16-43-45-43s-46 15-49 41l-32-3c6-41 34-60 81-64" id="aG"/><path d="M155-56V0h-30v-56H8v-25l114-167h33v167h35v25h-35zm-30-156c-27 46-58 90-88 131h88v-131" id="aH"/><g id="l"><use transform="matrix(0.1302469135802469,0,0,0.1302469135802469,0,0)" xlink:href="#aG"/><use transform="matrix(0.1302469135802469,0,0,0.1302469135802469,26.04938271604938,0)" xlink:href="#aH"/></g><path d="M126-127c33 6 58 20 58 59 0 88-139 92-164 29-3-8-5-16-6-25l32-3c6 27 21 44 54 44 32 0 52-15 52-46 0-38-36-46-79-43v-28c39 1 72-4 72-42 0-27-17-43-46-43-28 0-47 15-49 41l-32-3c6-42 35-63 81-64 48-1 79 21 79 65 0 36-21 52-52 59" id="aI"/><g id="m"><use transform="matrix(0.1302469135802469,0,0,0.1302469135802469,0,0)" xlink:href="#aI"/><use transform="matrix(0.1302469135802469,0,0,0.1302469135802469,26.04938271604938,0)" xlink:href="#aG"/></g><path d="M101-251c68 0 85 55 85 127S166 4 100 4C33 4 14-52 14-124c0-73 17-127 87-127zm-1 229c47 0 54-49 54-102s-4-102-53-102c-51 0-55 48-55 102 0 53 5 102 54 102" id="aJ"/><g id="n"><use transform="matrix(0.1302469135802469,0,0,0.1302469135802469,0,0)" xlink:href="#aH"/><use transform="matrix(0.1302469135802469,0,0,0.1302469135802469,26.04938271604938,0)" xlink:href="#aJ"/></g><g id="o"><use transform="matrix(0.1302469135802469,0,0,0.1302469135802469,0,0)" xlink:href="#aH"/><use transform="matrix(0.1302469135802469,0,0,0.1302469135802469,26.04938271604938,0)" xlink:href="#aD"/></g><path d="M54-142c48-35 137-8 131 61C196 18 31 33 14-55l32-4c7 23 22 37 52 37 35-1 51-22 54-58 4-55-73-65-99-34H22l8-134h141v27H59" id="aK"/><g id="p"><use transform="matrix(0.1302469135802469,0,0,0.1302469135802469,0,0)" xlink:href="#aK"/><use transform="matrix(0.1302469135802469,0,0,0.1302469135802469,26.04938271604938,0)" xlink:href="#aF"/></g><g id="q"><use transform="matrix(0.1302469135802469,0,0,0.1302469135802469,0,0)" xlink:href="#aF"/><use transform="matrix(0.1302469135802469,0,0,0.1302469135802469,26.04938271604938,0)" xlink:href="#aH"/></g><path d="M64 0c3-98 48-159 88-221H18v-27h164v26C143-157 98-101 97 0H64" id="aL"/><g id="r"><use transform="matrix(0.1302469135802469,0,0,0.1302469135802469,0,0)" xlink:href="#aL"/><use transform="matrix(0.1302469135802469,0,0,0.1302469135802469,26.04938271604938,0)" xlink:href="#aG"/></g><path d="M158-156l-14 65h45v19h-49L124 0h-19l15-72H56L41 0H22l15-72H2v-19h39l14-65H11v-19h48l15-71h20l-16 71h64l16-71h19l-16 71h37v19h-40zm-83 0L61-91h63l14-65H75" id="aM"/><use transform="matrix(0.1302469135802469,0,0,0.1302469135802469,0,0)" xlink:href="#aM" id="s"/><path d="M100-194c62-1 85 37 85 99 1 63-27 99-86 99S16-35 15-95c0-66 28-99 85-99zM99-20c44 1 53-31 53-75 0-43-8-75-51-75s-53 32-53 75 10 74 51 75" id="aN"/><path d="M101-234c-31-9-42 10-38 44h38v23H63V0H32v-167H5v-23h27c-7-52 17-82 69-68v24" id="aO"/><g id="t"><use transform="matrix(0.1302469135802469,0,0,0.1302469135802469,0,0)" xlink:href="#aN"/><use transform="matrix(0.1302469135802469,0,0,0.1302469135802469,26.04938271604938,0)" xlink:href="#aO"/></g><path d="M115-194c53 0 69 39 70 98 0 66-23 100-70 100C84 3 66-7 56-30L54 0H23l1-261h32v101c10-23 28-34 59-34zm-8 174c40 0 45-34 45-75 0-40-5-75-45-74-42 0-51 32-51 76 0 43 10 73 51 73" id="aP"/><path d="M179-190L93 31C79 59 56 82 12 73V49c39 6 53-20 64-50L1-190h34L92-34l54-156h33" id="aQ"/><path d="M59-47c-2 24 18 29 38 22v24C64 9 27 4 27-40v-127H5v-23h24l9-43h21v43h35v23H59v120" id="aR"/><path d="M100-194c63 0 86 42 84 106H49c0 40 14 67 53 68 26 1 43-12 49-29l28 8c-11 28-37 45-77 45C44 4 14-33 15-96c1-61 26-98 85-98zm52 81c6-60-76-77-97-28-3 7-6 17-6 28h103" id="aS"/><path d="M135-143c-3-34-86-38-87 0 15 53 115 12 119 90S17 21 10-45l28-5c4 36 97 45 98 0-10-56-113-15-118-90-4-57 82-63 122-42 12 7 21 19 24 35" id="aT"/><g id="u"><use transform="matrix(0.1302469135802469,0,0,0.1302469135802469,0,0)" xlink:href="#aP"/><use transform="matrix(0.1302469135802469,0,0,0.1302469135802469,26.04938271604938,0)" xlink:href="#aQ"/><use transform="matrix(0.1302469135802469,0,0,0.1302469135802469,49.49382716049382,0)" xlink:href="#aR"/><use transform="matrix(0.1302469135802469,0,0,0.1302469135802469,62.51851851851851,0)" xlink:href="#aS"/><use transform="matrix(0.1302469135802469,0,0,0.1302469135802469,88.5679012345679,0)" xlink:href="#aT"/></g><use transform="matrix(0.1302469135802469,0,0,0.1302469135802469,0,0)" xlink:href="#aJ" id="v"/><path d="M141-36C126-15 110 5 73 4 37 3 15-17 15-53c-1-64 63-63 125-63 3-35-9-54-41-54-24 1-41 7-42 31l-33-3c5-37 33-52 76-52 45 0 72 20 72 64v82c-1 20 7 32 28 27v20c-31 9-61-2-59-35zM48-53c0 20 12 33 32 33 41-3 63-29 60-74-43 2-92-5-92 41" id="aU"/><path d="M85-194c31 0 48 13 60 33l-1-100h32l1 261h-30c-2-10 0-23-3-31C134-8 116 4 85 4 32 4 16-35 15-94c0-66 23-100 70-100zm9 24c-40 0-46 34-46 75 0 40 6 74 45 74 42 0 51-32 51-76 0-42-9-74-50-73" id="aV"/><path d="M114-163C36-179 61-72 57 0H25l-1-190h30c1 12-1 29 2 39 6-27 23-49 58-41v29" id="aW"/><g id="w"><use transform="matrix(0.1302469135802469,0,0,0.1302469135802469,0,0)" xlink:href="#aU"/><use transform="matrix(0.1302469135802469,0,0,0.1302469135802469,26.04938271604938,0)" xlink:href="#aV"/><use transform="matrix(0.1302469135802469,0,0,0.1302469135802469,52.09876543209876,0)" xlink:href="#aV"/><use transform="matrix(0.1302469135802469,0,0,0.1302469135802469,78.14814814814814,0)" xlink:href="#aW"/><use transform="matrix(0.1302469135802469,0,0,0.1302469135802469,93.64753086419752,0)" xlink:href="#aS"/><use transform="matrix(0.1302469135802469,0,0,0.1302469135802469,119.6969135802469,0)" xlink:href="#aT"/><use transform="matrix(0.1302469135802469,0,0,0.1302469135802469,143.14135802469133,0)" xlink:href="#aT"/></g><path d="M87 75C49 33 22-17 22-94c0-76 28-126 65-167h31c-38 41-64 92-64 168S80 34 118 75H87" id="aX"/><path d="M106-169C34-169 62-67 57 0H25v-261h32l-1 103c12-21 28-36 61-36 89 0 53 116 60 194h-32v-121c2-32-8-49-39-48" id="aY"/><path d="M141 0L90-78 38 0H4l68-98-65-92h35l48 74 47-74h35l-64 92 68 98h-35" id="aZ"/><path d="M33-261c38 41 65 92 65 168S71 34 33 75H2C39 34 66-17 66-93S39-220 2-261h31" id="ba"/><g id="x"><use transform="matrix(0.1302469135802469,0,0,0.1302469135802469,0,0)" xlink:href="#aX"/><use transform="matrix(0.1302469135802469,0,0,0.1302469135802469,15.49938271604938,0)" xlink:href="#aY"/><use transform="matrix(0.1302469135802469,0,0,0.1302469135802469,41.54876543209876,0)" xlink:href="#aS"/><use transform="matrix(0.1302469135802469,0,0,0.1302469135802469,67.59814814814814,0)" xlink:href="#aZ"/><use transform="matrix(0.1302469135802469,0,0,0.1302469135802469,91.04259259259258,0)" xlink:href="#ba"/></g><path d="M33 0v-38h34V0H33" id="bb"/><g id="y"><use transform="matrix(0.24753086419753068,0,0,0.24753086419753068,0,0)" xlink:href="#aE"/><use transform="matrix(0.24753086419753068,0,0,0.24753086419753068,49.506172839506135,0)" xlink:href="#bb"/></g><path fill="#c92d39" d="M101-251c82-7 93 87 43 132L82-64C71-53 59-42 53-27h129V0H18c2-99 128-94 128-182 0-28-16-43-45-43s-46 15-49 41l-32-3c6-41 34-60 81-64" id="bc"/><path fill="#c92d39" d="M33 0v-38h34V0H33" id="bd"/><g id="z"><use transform="matrix(0.24753086419753068,0,0,0.24753086419753068,0,0)" xlink:href="#bc"/><use transform="matrix(0.24753086419753068,0,0,0.24753086419753068,49.506172839506135,0)" xlink:href="#bd"/></g><g id="A"><use transform="matrix(0.24753086419753068,0,0,0.24753086419753068,0,0)" xlink:href="#aI"/><use transform="matrix(0.24753086419753068,0,0,0.24753086419753068,49.506172839506135,0)" xlink:href="#bb"/></g><g id="B"><use transform="matrix(0.24753086419753068,0,0,0.24753086419753068,0,0)" xlink:href="#aH"/><use transform="matrix(0.24753086419753068,0,0,0.24753086419753068,49.506172839506135,0)" xlink:href="#bb"/></g><g id="C"><use transform="matrix(0.24753086419753068,0,0,0.24753086419753068,0,0)" xlink:href="#aK"/><use transform="matrix(0.24753086419753068,0,0,0.24753086419753068,49.506172839506135,0)" xlink:href="#bb"/></g><g id="D"><use transform="matrix(0.24753086419753068,0,0,0.24753086419753068,0,0)" xlink:href="#aF"/><use transform="matrix(0.24753086419753068,0,0,0.24753086419753068,49.506172839506135,0)" xlink:href="#bb"/></g><g id="E"><use transform="matrix(0.24753086419753068,0,0,0.24753086419753068,0,0)" xlink:href="#aL"/><use transform="matrix(0.24753086419753068,0,0,0.24753086419753068,49.506172839506135,0)" xlink:href="#bb"/></g><g id="F"><use transform="matrix(0.24753086419753068,0,0,0.24753086419753068,0,0)" xlink:href="#aD"/><use transform="matrix(0.24753086419753068,0,0,0.24753086419753068,49.506172839506135,0)" xlink:href="#bb"/></g><path d="M99-251c64 0 84 50 84 122C183-37 130 33 47-8c-14-7-20-23-25-40l30-5c6 39 69 39 84 7 9-19 16-44 16-74-10 22-31 35-62 35-49 0-73-33-73-83 0-54 28-83 82-83zm-1 141c31-1 51-18 51-49 0-36-14-67-51-67-34 0-49 23-49 58 0 34 15 58 49 58" id="be"/><g id="G"><use transform="matrix(0.24753086419753068,0,0,0.24753086419753068,0,0)" xlink:href="#be"/><use transform="matrix(0.24753086419753068,0,0,0.24753086419753068,49.506172839506135,0)" xlink:href="#bb"/></g><path d="M108 0H70L1-190h34L89-25l56-165h34" id="bf"/><path d="M24 0v-261h32V0H24" id="bg"/><path d="M84 4C-5 8 30-112 23-190h32v120c0 31 7 50 39 49 72-2 45-101 50-169h31l1 190h-30c-1-10 1-25-2-33-11 22-28 36-60 37" id="bh"/><g id="H"><use transform="matrix(0.1302469135802469,0,0,0.1302469135802469,0,0)" xlink:href="#bf"/><use transform="matrix(0.1302469135802469,0,0,0.1302469135802469,23.444444444444443,0)" xlink:href="#aU"/><use transform="matrix(0.1302469135802469,0,0,0.1302469135802469,49.49382716049382,0)" xlink:href="#bg"/><use transform="matrix(0.1302469135802469,0,0,0.1302469135802469,59.78333333333333,0)" xlink:href="#bh"/><use transform="matrix(0.1302469135802469,0,0,0.1302469135802469,85.83271604938271,0)" xlink:href="#aS"/></g><g id="I"><use transform="matrix(0.1302469135802469,0,0,0.1302469135802469,0,0)" xlink:href="#aX"/><use transform="matrix(0.1302469135802469,0,0,0.1302469135802469,15.49938271604938,0)" xlink:href="#aF"/><use transform="matrix(0.1302469135802469,0,0,0.1302469135802469,41.54876543209876,0)" xlink:href="#aH"/></g><path d="M24-231v-30h32v30H24zM24 0v-190h32V0H24" id="bi"/><g id="J"><use transform="matrix(0.1302469135802469,0,0,0.1302469135802469,0,0)" xlink:href="#aP"/><use transform="matrix(0.1302469135802469,0,0,0.1302469135802469,26.04938271604938,0)" xlink:href="#bi"/><use transform="matrix(0.1302469135802469,0,0,0.1302469135802469,36.33888888888889,0)" xlink:href="#aR"/><use transform="matrix(0.1302469135802469,0,0,0.1302469135802469,49.36358024691358,0)" xlink:href="#aT"/><use transform="matrix(0.1302469135802469,0,0,0.1302469135802469,72.80802469135801,0)" xlink:href="#ba"/></g><use transform="matrix(0.04666666666666667,0,0,0.04666666666666667,0,0)" xlink:href="#au" id="K"/><path d="M45-438h411v61H45v-61zm0 207h411v61H45v-61" id="bj"/><use transform="matrix(0.04666666666666667,0,0,0.04666666666666667,0,0)" xlink:href="#bj" id="L"/><path d="M274-405c-78 10-132 62-132 142V0H68v-457h74v81c34-51 89-92 151-92 88 0 139 91 139 191V0h-71v-275c9-55-27-138-87-130" id="bk"/><path d="M60-457h73v70c31-50 85-80 144-80 90 0 186 72 186 233 0 168-99 246-192 246-55 0-107-27-137-72v227H60v-624zm191 51c-78 0-118 60-118 157 0 66 0 103 13 134 18 42 61 63 104 63s138-23 138-167c0-166-97-187-137-187" id="bl"/><path d="M298-46c0 31-26 57-59 57s-60-25-60-57c0-31 27-58 60-58s59 27 59 58" id="bm"/><path d="M366-269c2-83-14-137-109-139-42 0-94 12-131 51l-35-46c43-44 101-64 163-64 110 0 181 69 181 184V0h-68v-50C317-9 259 11 203 11 23 8-5-195 154-249c63-21 138-20 212-20zm3 55c-54 1-120-4-167 7-57 14-81 51-81 84 0 41 35 79 96 79 60 0 104-36 120-54 39-46 31-65 32-116" id="bn"/><path d="M425-349c-21-29-38-57-93-57-32 0-86 11-128 77-31 49-32 79-32 107V1H99v-458h75l-2 88c45-108 209-131 286-49" id="bo"/><path d="M60 71c12 22 12 44 61 44 61 0 93-68 110-117L46-457h89c0 12-6 19-2 30L267-91c40-122 91-235 121-366h75C406-283 326-121 275 52c-29 99-167 167-253 83" id="bp"/><path d="M403-604c-124 64-194 197-195 342 0 155 80 303 217 382l-32 53C235 90 139-76 139-258c0-183 98-340 253-408l30 61c-7 4-12 1-19 1" id="bq"/><path d="M131-670h286v60H195V32h223v57H131v-759" id="br"/><path d="M230 34c-6-47-51-27-51-80 0-30 24-57 57-57 36 0 70 32 70 83 0 52-37 117-107 188l-34-30c36-40 54-52 65-104" id="bs"/><g id="M"><use transform="matrix(0.04666666666666667,0,0,0.04666666666666667,0,0)" xlink:href="#bk"/><use transform="matrix(0.04666666666666667,0,0,0.04666666666666667,23.333333333333336,0)" xlink:href="#bl"/><use transform="matrix(0.04666666666666667,0,0,0.04666666666666667,46.66666666666667,0)" xlink:href="#bm"/><use transform="matrix(0.04666666666666667,0,0,0.04666666666666667,70,0)" xlink:href="#bn"/><use transform="matrix(0.04666666666666667,0,0,0.04666666666666667,93.33333333333334,0)" xlink:href="#bo"/><use transform="matrix(0.04666666666666667,0,0,0.04666666666666667,116.6666666666667,0)" xlink:href="#bo"/><use transform="matrix(0.04666666666666667,0,0,0.04666666666666667,140.00000000000003,0)" xlink:href="#bn"/><use transform="matrix(0.04666666666666667,0,0,0.04666666666666667,163.33333333333337,0)" xlink:href="#bp"/><use transform="matrix(0.04666666666666667,0,0,0.04666666666666667,186.6666666666667,0)" xlink:href="#bq"/><use transform="matrix(0.04666666666666667,0,0,0.04666666666666667,210.00000000000006,0)" xlink:href="#br"/><use transform="matrix(0.04666666666666667,0,0,0.04666666666666667,233.3333333333334,0)" xlink:href="#ay"/><use transform="matrix(0.04666666666666667,0,0,0.04666666666666667,256.66666666666674,0)" xlink:href="#bm"/><use transform="matrix(0.04666666666666667,0,0,0.04666666666666667,280.00000000000006,0)" xlink:href="#bs"/></g><g id="N"><use transform="matrix(0.04666666666666667,0,0,0.04666666666666667,0,0)" xlink:href="#aA"/><use transform="matrix(0.04666666666666667,0,0,0.04666666666666667,23.333333333333336,0)" xlink:href="#bm"/><use transform="matrix(0.04666666666666667,0,0,0.04666666666666667,46.66666666666667,0)" xlink:href="#bs"/></g><g id="O"><use transform="matrix(0.04666666666666667,0,0,0.04666666666666667,0,0)" xlink:href="#aB"/><use transform="matrix(0.04666666666666667,0,0,0.04666666666666667,23.333333333333336,0)" xlink:href="#bm"/><use transform="matrix(0.04666666666666667,0,0,0.04666666666666667,46.66666666666667,0)" xlink:href="#bs"/></g><g id="P"><use transform="matrix(0.04666666666666667,0,0,0.04666666666666667,0,0)" xlink:href="#aC"/><use transform="matrix(0.04666666666666667,0,0,0.04666666666666667,23.333333333333336,0)" xlink:href="#bm"/><use transform="matrix(0.04666666666666667,0,0,0.04666666666666667,46.66666666666667,0)" xlink:href="#bs"/></g><path d="M106-623h316v63H165l-10 179c141-67 290 9 290 184C445 36 163 71 64-85l62-46c9 6 3 15 7 23 3 7 48 58 115 58s126-52 126-148c0-163-166-190-245-90l-44-18" id="bt"/><g id="Q"><use transform="matrix(0.04666666666666667,0,0,0.04666666666666667,0,0)" xlink:href="#bt"/><use transform="matrix(0.04666666666666667,0,0,0.04666666666666667,23.333333333333336,0)" xlink:href="#bm"/><use transform="matrix(0.04666666666666667,0,0,0.04666666666666667,46.66666666666667,0)" xlink:href="#bs"/></g><path d="M375-520c-19-29-21-48-87-48-45 0-148 28-152 241 91-141 303-73 303 129C439 10 210 83 114-72 44-186 51-340 94-475c53-167 213-199 330-98zm-4 325c0-190-167-178-231-62-8 116 48 205 124 205 53 0 107-46 107-143" id="bu"/><g id="R"><use transform="matrix(0.04666666666666667,0,0,0.04666666666666667,0,0)" xlink:href="#bu"/><use transform="matrix(0.04666666666666667,0,0,0.04666666666666667,23.333333333333336,0)" xlink:href="#bm"/><use transform="matrix(0.04666666666666667,0,0,0.04666666666666667,46.66666666666667,0)" xlink:href="#bs"/></g><path d="M432-584C350-397 277-203 214 0h-79c63-190 134-378 210-557H79v-66h353v39" id="bv"/><g id="S"><use transform="matrix(0.04666666666666667,0,0,0.04666666666666667,0,0)" xlink:href="#bv"/><use transform="matrix(0.04666666666666667,0,0,0.04666666666666667,23.333333333333336,0)" xlink:href="#bm"/><use transform="matrix(0.04666666666666667,0,0,0.04666666666666667,46.66666666666667,0)" xlink:href="#bs"/></g><g id="T"><use transform="matrix(0.04666666666666667,0,0,0.04666666666666667,0,0)" xlink:href="#az"/><use transform="matrix(0.04666666666666667,0,0,0.04666666666666667,23.333333333333336,0)" xlink:href="#bm"/><use transform="matrix(0.04666666666666667,0,0,0.04666666666666667,46.66666666666667,0)" xlink:href="#bs"/></g><path d="M411-135C352 19 191 54 79-47l49-53c11 7 8 17 16 24 0 0 30 23 75 23s96-23 123-86c7-16 23-57 26-154-94 132-300 56-300-130 0-121 82-206 179-206 65 0 130 43 169 135 27 63 23 322-5 359zM136-426c2 169 167 175 228 63 11-126-48-204-119-204-57 0-109 50-109 141" id="bw"/><path d="M369-670V89H83V32h223v-642H84v-60h285" id="bx"/><path d="M78-603l19-62c162 75 267 236 267 414C364-71 257 95 91 174l-19-60C207 42 293-98 293-248c0-148-83-285-215-355" id="by"/><g id="U"><use transform="matrix(0.04666666666666667,0,0,0.04666666666666667,0,0)" xlink:href="#bw"/><use transform="matrix(0.04666666666666667,0,0,0.04666666666666667,23.333333333333336,0)" xlink:href="#bm"/><use transform="matrix(0.04666666666666667,0,0,0.04666666666666667,46.66666666666667,0)" xlink:href="#bx"/><use transform="matrix(0.04666666666666667,0,0,0.04666666666666667,70,0)" xlink:href="#by"/></g><path d="M371-390v-275h77c0 12-10 17-10 28l1 595c0 14 1 28 5 42h-72c-7-22-3-46-4-73-29 51-83 83-141 83-88 0-182-73-182-242 0-175 105-237 192-237 63 0 112 32 134 79zM243-53c73 0 122-71 122-170 0-51-1-77-7-98-18-68-78-89-118-89-53 0-125 36-125 166 0 150 76 191 128 191" id="bz"/><path d="M298 9c-94 0-131-85-131-173 0-78 4-156 10-234H70l1-59h109l8-122 79-13c4 10-4 16-6 27-5 25-12 108-12 108h150v59H249c-9 66-12 213-6 267 6 55 43 73 77 73 28 0 63-12 102-41l22 57C405-14 352 9 298 9" id="bA"/><path d="M259-468c75 0 160 39 181 162 4 27 6 57 3 88H118c5 137 95 170 156 170 45 0 88-18 118-51l40 39c-39 47-99 70-164 70C144 10 49-71 49-223c0-167 101-245 210-245zM121-274h251c9-74-44-139-118-139-49 0-119 31-133 139" id="bB"/><g id="V"><use transform="matrix(0.04666666666666667,0,0,0.04666666666666667,0,0)" xlink:href="#au"/><use transform="matrix(0.04666666666666667,0,0,0.04666666666666667,23.333333333333336,0)" xlink:href="#bm"/><use transform="matrix(0.04666666666666667,0,0,0.04666666666666667,46.66666666666667,0)" xlink:href="#bz"/><use transform="matrix(0.04666666666666667,0,0,0.04666666666666667,70,0)" xlink:href="#bA"/><use transform="matrix(0.04666666666666667,0,0,0.04666666666666667,93.33333333333334,0)" xlink:href="#bp"/><use transform="matrix(0.04666666666666667,0,0,0.04666666666666667,116.6666666666667,0)" xlink:href="#bl"/><use transform="matrix(0.04666666666666667,0,0,0.04666666666666667,140.00000000000003,0)" xlink:href="#bB"/></g><path d="M789-314L550-75H394l181-181H58v-117h517L394-554h156" id="bC"/><use transform="matrix(0.04666666666666667,0,0,0.04666666666666667,0,0)" xlink:href="#bC" id="W"/><path d="M319-605c6 27-41 146-58 193l-55-13c11-40 30-75 32-123 0-22-7-41-7-63 0-40 24-55 43-55 20 0 45 16 45 61" id="bD"/><path d="M162-475c-12-115 77-196 181-196 57 0 107 24 140 63l-33 66c-10 1-6-13-10-20-19-29-56-52-100-52-73 0-120 71-109 149v35h150v57H231V0h-69v-373H63v-57h99v-45" id="bE"/><path d="M85-665h202v607h134V0H79v-58h135v-549H85v-58" id="bF"/><path d="M460-226c0 151-97 238-205 238C140 12 40-86 40-225c0-141 101-242 217-242 104 0 203 83 203 241zm-72 3c1-245-271-238-272-8-5 228 272 366 272 8" id="bG"/><g id="X"><use transform="matrix(0.04666666666666667,0,0,0.04666666666666667,0,0)" xlink:href="#bz"/><use transform="matrix(0.04666666666666667,0,0,0.04666666666666667,23.333333333333336,0)" xlink:href="#bA"/><use transform="matrix(0.04666666666666667,0,0,0.04666666666666667,46.66666666666667,0)" xlink:href="#bp"/><use transform="matrix(0.04666666666666667,0,0,0.04666666666666667,70,0)" xlink:href="#bl"/><use transform="matrix(0.04666666666666667,0,0,0.04666666666666667,93.33333333333334,0)" xlink:href="#bB"/><use transform="matrix(0.04666666666666667,0,0,0.04666666666666667,116.6666666666667,0)" xlink:href="#bq"/><use transform="matrix(0.04666666666666667,0,0,0.04666666666666667,140.00000000000003,0)" xlink:href="#bD"/><use transform="matrix(0.04666666666666667,0,0,0.04666666666666667,163.33333333333337,0)" xlink:href="#bE"/><use transform="matrix(0.04666666666666667,0,0,0.04666666666666667,186.6666666666667,0)" xlink:href="#bF"/><use transform="matrix(0.04666666666666667,0,0,0.04666666666666667,210.00000000000006,0)" xlink:href="#bG"/><use transform="matrix(0.04666666666666667,0,0,0.04666666666666667,233.3333333333334,0)" xlink:href="#bn"/><use transform="matrix(0.04666666666666667,0,0,0.04666666666666667,256.66666666666674,0)" xlink:href="#bA"/><use transform="matrix(0.04666666666666667,0,0,0.04666666666666667,280.00000000000006,0)" xlink:href="#bu"/><use transform="matrix(0.04666666666666667,0,0,0.04666666666666667,303.33333333333337,0)" xlink:href="#aC"/><use transform="matrix(0.04666666666666667,0,0,0.04666666666666667,326.6666666666667,0)" xlink:href="#bD"/><use transform="matrix(0.04666666666666667,0,0,0.04666666666666667,350,0)" xlink:href="#by"/></g><g id="Y"><use transform="matrix(0.04666666666666667,0,0,0.04666666666666667,0,0)" xlink:href="#bu"/><use transform="matrix(0.04666666666666667,0,0,0.04666666666666667,23.333333333333336,0)" xlink:href="#aC"/></g><path d="M144-665c2 12-11 11-11 22v256c29-50 83-81 141-81 90 0 183 74 183 234 0 166-97 245-191 245-55 0-105-26-135-71L106 0H60v-665h84zm105 259c-79 0-116 64-116 163 0 40 0 66 3 90 12 87 80 100 111 100 45 0 136-26 136-166 0-161-91-187-134-187" id="bH"/><path d="M106-457h183v399h107V0H100v-58h117v-341H106v-58zm149-199c29 0 51 23 51 51s-22 52-51 52-52-24-52-52 23-51 52-51" id="bI"/><path d="M432-396l-42 63c-7 0-3-13-7-18-17-22-62-62-127-62-88-1-140 75-51 117 43 21 116 31 168 60 54 30 67 72 67 104 0 69-65 142-190 142-69 0-139-22-193-72l41-72c9 7 1 12 8 20 14 16 65 64 143 64 102 0 167-82 71-131-33-17-83-27-122-41-25-9-112-38-112-118 0-68 70-128 176-128 68 0 128 25 170 72" id="bJ"/><g id="Z"><use transform="matrix(0.04666666666666667,0,0,0.04666666666666667,0,0)" xlink:href="#bH"/><use transform="matrix(0.04666666666666667,0,0,0.04666666666666667,23.333333333333336,0)" xlink:href="#bI"/><use transform="matrix(0.04666666666666667,0,0,0.04666666666666667,46.66666666666667,0)" xlink:href="#bA"/><use transform="matrix(0.04666666666666667,0,0,0.04666666666666667,70,0)" xlink:href="#bJ"/></g><use transform="matrix(0.04666666666666667,0,0,0.04666666666666667,0,0)" xlink:href="#az" id="aa"/><g id="ab"><use transform="matrix(0.04666666666666667,0,0,0.04666666666666667,0,0)" xlink:href="#bH"/><use transform="matrix(0.04666666666666667,0,0,0.04666666666666667,23.333333333333336,0)" xlink:href="#bp"/><use transform="matrix(0.04666666666666667,0,0,0.04666666666666667,46.66666666666667,0)" xlink:href="#bA"/><use transform="matrix(0.04666666666666667,0,0,0.04666666666666667,70,0)" xlink:href="#bB"/><use transform="matrix(0.04666666666666667,0,0,0.04666666666666667,93.33333333333334,0)" xlink:href="#bJ"/></g><path d="M276-405c-78 10-133 62-133 142V0H70v-665h83c3 11-10 14-10 24v265c34-51 90-92 152-92 88 0 138 91 138 191V0h-71v-275c9-55-26-138-86-130" id="bK"/><g id="ac"><use transform="matrix(0.04666666666666667,0,0,0.04666666666666667,0,0)" xlink:href="#au"/><use transform="matrix(0.04666666666666667,0,0,0.04666666666666667,23.333333333333336,0)" xlink:href="#bm"/><use transform="matrix(0.04666666666666667,0,0,0.04666666666666667,46.66666666666667,0)" xlink:href="#bJ"/><use transform="matrix(0.04666666666666667,0,0,0.04666666666666667,70,0)" xlink:href="#bK"/><use transform="matrix(0.04666666666666667,0,0,0.04666666666666667,93.33333333333334,0)" xlink:href="#bn"/><use transform="matrix(0.04666666666666667,0,0,0.04666666666666667,116.6666666666667,0)" xlink:href="#bl"/><use transform="matrix(0.04666666666666667,0,0,0.04666666666666667,140.00000000000003,0)" xlink:href="#bB"/></g><use transform="matrix(0.04666666666666667,0,0,0.04666666666666667,0,0)" xlink:href="#bC" id="ad"/><g id="ae"><use transform="matrix(0.04666666666666667,0,0,0.04666666666666667,0,0)" xlink:href="#bq"/><use transform="matrix(0.04666666666666667,0,0,0.04666666666666667,23.333333333333336,0)" xlink:href="#bw"/><use transform="matrix(0.04666666666666667,0,0,0.04666666666666667,46.66666666666667,0)" xlink:href="#bs"/><use transform="matrix(0.04666666666666667,0,0,0.04666666666666667,70,0)" xlink:href="#by"/></g><path d="M173-413c-33-7-69 65-69 108V0H38v-457h66v45c21-32 56-56 93-56 41 0 74 29 81 67 27-65 127-96 174-30 21 30 18 69 18 107V1h-68v-325c5-38-4-96-42-91-51 6-72 68-73 113V0h-67v-318c7-41-11-101-47-95" id="bL"/><path d="M71-457h355v49L148-61h271c14 0 19-8 31-6V1H50v-49l283-346H71v-63" id="bM"/><g id="af"><use transform="matrix(0.04666666666666667,0,0,0.04666666666666667,0,0)" xlink:href="#au"/><use transform="matrix(0.04666666666666667,0,0,0.04666666666666667,23.333333333333336,0)" xlink:href="#bm"/><use transform="matrix(0.04666666666666667,0,0,0.04666666666666667,46.66666666666667,0)" xlink:href="#bI"/><use transform="matrix(0.04666666666666667,0,0,0.04666666666666667,70,0)" xlink:href="#bA"/><use transform="matrix(0.04666666666666667,0,0,0.04666666666666667,93.33333333333334,0)" xlink:href="#bB"/><use transform="matrix(0.04666666666666667,0,0,0.04666666666666667,116.6666666666667,0)" xlink:href="#bL"/><use transform="matrix(0.04666666666666667,0,0,0.04666666666666667,140.00000000000003,0)" xlink:href="#bJ"/><use transform="matrix(0.04666666666666667,0,0,0.04666666666666667,163.33333333333337,0)" xlink:href="#bI"/><use transform="matrix(0.04666666666666667,0,0,0.04666666666666667,186.6666666666667,0)" xlink:href="#bM"/><use transform="matrix(0.04666666666666667,0,0,0.04666666666666667,210.00000000000006,0)" xlink:href="#bB"/></g><use transform="matrix(0.04666666666666667,0,0,0.04666666666666667,0,0)" xlink:href="#az" id="ag"/><g id="ah"><use transform="matrix(0.04666666666666667,0,0,0.04666666666666667,0,0)" xlink:href="#au"/><use transform="matrix(0.04666666666666667,0,0,0.04666666666666667,23.333333333333336,0)" xlink:href="#bm"/><use transform="matrix(0.04666666666666667,0,0,0.04666666666666667,46.66666666666667,0)" xlink:href="#bJ"/><use transform="matrix(0.04666666666666667,0,0,0.04666666666666667,70,0)" xlink:href="#bA"/><use transform="matrix(0.04666666666666667,0,0,0.04666666666666667,93.33333333333334,0)" xlink:href="#bo"/><use transform="matrix(0.04666666666666667,0,0,0.04666666666666667,116.6666666666667,0)" xlink:href="#bI"/><use transform="matrix(0.04666666666666667,0,0,0.04666666666666667,140.00000000000003,0)" xlink:href="#bz"/><use transform="matrix(0.04666666666666667,0,0,0.04666666666666667,163.33333333333337,0)" xlink:href="#bB"/><use transform="matrix(0.04666666666666667,0,0,0.04666666666666667,186.6666666666667,0)" xlink:href="#bJ"/></g><g id="ai"><use transform="matrix(0.04666666666666667,0,0,0.04666666666666667,0,0)" xlink:href="#bq"/><use transform="matrix(0.04666666666666667,0,0,0.04666666666666667,23.333333333333336,0)" xlink:href="#az"/><use transform="matrix(0.04666666666666667,0,0,0.04666666666666667,46.66666666666667,0)" xlink:href="#bs"/><use transform="matrix(0.04666666666666667,0,0,0.04666666666666667,70,0)" xlink:href="#by"/></g><g id="aj"><use transform="matrix(0.04666666666666667,0,0,0.04666666666666667,0,0)" xlink:href="#au"/><use transform="matrix(0.04666666666666667,0,0,0.04666666666666667,23.333333333333336,0)" xlink:href="#bm"/><use transform="matrix(0.04666666666666667,0,0,0.04666666666666667,46.66666666666667,0)" xlink:href="#bk"/><use transform="matrix(0.04666666666666667,0,0,0.04666666666666667,70,0)" xlink:href="#bH"/><use transform="matrix(0.04666666666666667,0,0,0.04666666666666667,93.33333333333334,0)" xlink:href="#bp"/><use transform="matrix(0.04666666666666667,0,0,0.04666666666666667,116.6666666666667,0)" xlink:href="#bA"/><use transform="matrix(0.04666666666666667,0,0,0.04666666666666667,140.00000000000003,0)" xlink:href="#bB"/><use transform="matrix(0.04666666666666667,0,0,0.04666666666666667,163.33333333333337,0)" xlink:href="#bJ"/></g><g id="ak"><use transform="matrix(0.04666666666666667,0,0,0.04666666666666667,0,0)" xlink:href="#bv"/><use transform="matrix(0.04666666666666667,0,0,0.04666666666666667,23.333333333333336,0)" xlink:href="#aA"/></g><path fill="#c92d39" d="M240 0l2-218c-23 76-54 145-80 218h-23L58-218 59 0H30v-248h44l77 211c21-75 51-140 76-211h43V0h-30" id="bN"/><path fill="#c92d39" d="M100-194c62-1 85 37 85 99 1 63-27 99-86 99S16-35 15-95c0-66 28-99 85-99zM99-20c44 1 53-31 53-75 0-43-8-75-51-75s-53 32-53 75 10 74 51 75" id="bO"/><path fill="#c92d39" d="M108 0H70L1-190h34L89-25l56-165h34" id="bP"/><path fill="#c92d39" d="M100-194c63 0 86 42 84 106H49c0 40 14 67 53 68 26 1 43-12 49-29l28 8c-11 28-37 45-77 45C44 4 14-33 15-96c1-61 26-98 85-98zm52 81c6-60-76-77-97-28-3 7-6 17-6 28h103" id="bQ"/><g id="al"><use transform="matrix(0.1055555555555555,0,0,0.1055555555555555,0,0)" xlink:href="#bN"/><use transform="matrix(0.1055555555555555,0,0,0.1055555555555555,31.561111111111096,0)" xlink:href="#bO"/><use transform="matrix(0.1055555555555555,0,0,0.1055555555555555,52.672222222222196,0)" xlink:href="#bP"/><use transform="matrix(0.1055555555555555,0,0,0.1055555555555555,71.67222222222219,0)" xlink:href="#bQ"/></g><path fill="#c92d39" d="M138-131c27 9 52 24 51 61 0 53-36 74-89 74S11-19 11-69c0-35 22-54 51-61-78-25-46-121 38-121 51 0 83 19 83 66 0 30-18 49-45 54zm-38-16c24 0 32-13 32-36 1-23-11-34-32-34-22 0-33 12-32 34 0 22 9 36 32 36zm1 116c27 0 37-17 37-43 0-25-13-39-39-39-24 0-37 15-37 40 0 27 11 42 39 42" id="bR"/><use transform="matrix(0.1055555555555555,0,0,0.1055555555555555,0,0)" xlink:href="#bR" id="am"/><path fill="#c92d39" d="M135-194c52 0 70 43 70 98 0 56-19 99-73 100-30 1-46-15-58-35L72 0H24l1-261h50v104c11-23 29-37 60-37zM114-30c31 0 40-27 40-66 0-37-7-63-39-63s-41 28-41 65c0 36 8 64 40 64" id="bS"/><path fill="#c92d39" d="M123 10C108 53 80 86 19 72V37c35 8 53-11 59-39L3-190h52l48 148c12-52 28-100 44-148h51" id="bT"/><path fill="#c92d39" d="M115-3C79 11 28 4 28-45v-112H4v-33h27l15-45h31v45h36v33H77v99c-1 23 16 31 38 25v30" id="bU"/><path fill="#c92d39" d="M185-48c-13 30-37 53-82 52C43 2 14-33 14-96s30-98 90-98c62 0 83 45 84 108H66c0 31 8 55 39 56 18 0 30-7 34-22zm-45-69c5-46-57-63-70-21-2 6-4 13-4 21h74" id="bV"/><path fill="#c92d39" d="M137-138c1-29-70-34-71-4 15 46 118 7 119 86 1 83-164 76-172 9l43-7c4 19 20 25 44 25 33 8 57-30 24-41C81-84 22-81 20-136c-2-80 154-74 161-7" id="bW"/><g id="an"><use transform="matrix(0.1055555555555555,0,0,0.1055555555555555,0,0)" xlink:href="#bS"/><use transform="matrix(0.1055555555555555,0,0,0.1055555555555555,23.116666666666653,0)" xlink:href="#bT"/><use transform="matrix(0.1055555555555555,0,0,0.1055555555555555,44.22777777777775,0)" xlink:href="#bU"/><use transform="matrix(0.1055555555555555,0,0,0.1055555555555555,56.788888888888856,0)" xlink:href="#bV"/><use transform="matrix(0.1055555555555555,0,0,0.1055555555555555,77.89999999999995,0)" xlink:href="#bW"/></g><path fill="#c92d39" d="M59-47c-2 24 18 29 38 22v24C64 9 27 4 27-40v-127H5v-23h24l9-43h21v43h35v23H59v120" id="bX"/><g id="ao"><use transform="matrix(0.1055555555555555,0,0,0.1055555555555555,0,0)" xlink:href="#bX"/><use transform="matrix(0.1055555555555555,0,0,0.1055555555555555,10.55555555555555,0)" xlink:href="#bO"/></g><path fill="#c92d39" d="M177-190C167-65 218 103 67 71c-23-6-38-20-44-43l32-5c15 47 100 32 89-28v-30C133-14 115 1 83 1 29 1 15-40 15-95c0-56 16-97 71-98 29-1 48 16 59 35 1-10 0-23 2-32h30zM94-22c36 0 50-32 50-73 0-42-14-75-50-75-39 0-46 34-46 75s6 73 46 73" id="bY"/><g id="ap"><use transform="matrix(0.1055555555555555,0,0,0.1055555555555555,0,0)" xlink:href="#bY"/><use transform="matrix(0.1055555555555555,0,0,0.1055555555555555,21.1111111111111,0)" xlink:href="#bQ"/><use transform="matrix(0.1055555555555555,0,0,0.1055555555555555,42.2222222222222,0)" xlink:href="#bX"/></g><path fill="#c92d39" d="M106-169C34-169 62-67 57 0H25v-261h32l-1 103c12-21 28-36 61-36 89 0 53 116 60 194h-32v-121c2-32-8-49-39-48" id="bZ"/><g id="aq"><use transform="matrix(0.1055555555555555,0,0,0.1055555555555555,0,0)" xlink:href="#bX"/><use transform="matrix(0.1055555555555555,0,0,0.1055555555555555,10.55555555555555,0)" xlink:href="#bZ"/><use transform="matrix(0.1055555555555555,0,0,0.1055555555555555,31.66666666666665,0)" xlink:href="#bQ"/></g><path fill="#c92d39" d="M117-194c89-4 53 116 60 194h-32v-121c0-31-8-49-39-48C34-167 62-67 57 0H25l-1-190h30c1 10-1 24 2 32 11-22 29-35 61-36" id="ca"/><path fill="#c92d39" d="M141 0L90-78 38 0H4l68-98-65-92h35l48 74 47-74h35l-64 92 68 98h-35" id="cb"/><g id="ar"><use transform="matrix(0.1055555555555555,0,0,0.1055555555555555,0,0)" xlink:href="#ca"/><use transform="matrix(0.1055555555555555,0,0,0.1055555555555555,21.1111111111111,0)" xlink:href="#bQ"/><use transform="matrix(0.1055555555555555,0,0,0.1055555555555555,42.2222222222222,0)" xlink:href="#cb"/><use transform="matrix(0.1055555555555555,0,0,0.1055555555555555,61.22222222222219,0)" xlink:href="#bX"/></g><path fill="#c92d39" d="M24-231v-30h32v30H24zM24 0v-190h32V0H24" id="cc"/><path fill="#c92d39" d="M210-169c-67 3-38 105-44 169h-31v-121c0-29-5-50-35-48C34-165 62-65 56 0H25l-1-190h30c1 10-1 24 2 32 10-44 99-50 107 0 11-21 27-35 58-36 85-2 47 119 55 194h-31v-121c0-29-5-49-35-48" id="cd"/><g id="as"><use transform="matrix(0.1055555555555555,0,0,0.1055555555555555,0,0)" xlink:href="#cc"/><use transform="matrix(0.1055555555555555,0,0,0.1055555555555555,8.338888888888885,0)" xlink:href="#bX"/><use transform="matrix(0.1055555555555555,0,0,0.1055555555555555,18.894444444444435,0)" xlink:href="#bQ"/><use transform="matrix(0.1055555555555555,0,0,0.1055555555555555,40.00555555555553,0)" xlink:href="#cd"/></g></defs></g></svg>