<svg xmlns="http://www.w3.org/2000/svg" xmlns:xlink="http://www.w3.org/1999/xlink" xmlns:lucid="lucid" width="2427" height="1736.13"><g transform="translate(445 1414.1333333333334)" lucid:page-tab-id="0_0"><path d="M-1806.4-2518.4h5483.2v3841.6h-5483.2z" fill="#fff"/><path d="M300-1389.13h1260v213.46H300z" stroke="#000" stroke-opacity="0" stroke-width="10" fill="#fff" fill-opacity="0"/><use xlink:href="#a" transform="matrix(1,0,0,1,305,-1384.1333333333334) translate(0 44.641666666666666)"/><use xlink:href="#b" transform="matrix(1,0,0,1,305,-1384.1333333333334) translate(46.66666666666667 44.641666666666666)"/><use xlink:href="#c" transform="matrix(1,0,0,1,305,-1384.1333333333334) translate(93.33333333333334 44.641666666666666)"/><use xlink:href="#d" transform="matrix(1,0,0,1,305,-1384.1333333333334) translate(210.00000000000003 44.641666666666666)"/><use xlink:href="#e" transform="matrix(1,0,0,1,305,-1384.1333333333334) translate(373.33333333333337 44.641666666666666)"/><use xlink:href="#f" transform="matrix(1,0,0,1,305,-1384.1333333333334) translate(443.33333333333337 44.641666666666666)"/><use xlink:href="#g" transform="matrix(1,0,0,1,305,-1384.1333333333334) translate(505.68000000000006 44.641666666666666)"/><use xlink:href="#h" transform="matrix(1,0,0,1,305,-1384.1333333333334) translate(692.3466666666668 44.641666666666666)"/><use xlink:href="#i" transform="matrix(1,0,0,1,305,-1384.1333333333334) translate(739.0133333333334 44.641666666666666)"/><use xlink:href="#j" transform="matrix(1,0,0,1,305,-1384.1333333333334) translate(809.0133333333334 44.641666666666666)"/><use xlink:href="#k" transform="matrix(1,0,0,1,305,-1384.1333333333334) translate(855.6800000000001 44.641666666666666)"/><use xlink:href="#l" transform="matrix(1,0,0,1,305,-1384.1333333333334) translate(995.6800000000001 44.641666666666666)"/><use xlink:href="#m" transform="matrix(1,0,0,1,305,-1384.1333333333334) translate(0 95.50833333333333)"/><use xlink:href="#f" transform="matrix(1,0,0,1,305,-1384.1333333333334) translate(140.00000000000003 95.50833333333333)"/><use xlink:href="#n" transform="matrix(1,0,0,1,305,-1384.1333333333334) translate(202.3466666666667 95.50833333333333)"/><use xlink:href="#o" transform="matrix(1,0,0,1,305,-1384.1333333333334) translate(365.68000000000006 95.50833333333333)"/><use xlink:href="#g" transform="matrix(1,0,0,1,305,-1384.1333333333334) translate(505.68000000000006 95.50833333333333)"/><use xlink:href="#h" transform="matrix(1,0,0,1,305,-1384.1333333333334) translate(692.3466666666668 95.50833333333333)"/><use xlink:href="#j" transform="matrix(1,0,0,1,305,-1384.1333333333334) translate(739.0133333333334 95.50833333333333)"/><use xlink:href="#k" transform="matrix(1,0,0,1,305,-1384.1333333333334) translate(785.6800000000001 95.50833333333333)"/><use xlink:href="#p" transform="matrix(1,0,0,1,305,-1384.1333333333334) translate(925.6800000000001 95.50833333333333)"/><use xlink:href="#q" transform="matrix(1,0,0,1,305,-1384.1333333333334) translate(0 146.375)"/><use xlink:href="#f" transform="matrix(1,0,0,1,305,-1384.1333333333334) translate(140.00000000000003 146.375)"/><use xlink:href="#n" transform="matrix(1,0,0,1,305,-1384.1333333333334) translate(202.3466666666667 146.375)"/><use xlink:href="#r" transform="matrix(1,0,0,1,305,-1384.1333333333334) translate(365.68000000000006 146.375)"/><use xlink:href="#g" transform="matrix(1,0,0,1,305,-1384.1333333333334) translate(529.0133333333334 146.375)"/><use xlink:href="#h" transform="matrix(1,0,0,1,305,-1384.1333333333334) translate(715.6800000000002 146.375)"/><use xlink:href="#s" transform="matrix(1,0,0,1,305,-1384.1333333333334) translate(762.3466666666668 146.375)"/><use xlink:href="#k" transform="matrix(1,0,0,1,305,-1384.1333333333334) translate(855.6800000000002 146.375)"/><use xlink:href="#t" transform="matrix(1,0,0,1,305,-1384.1333333333334) translate(995.6800000000002 146.375)"/><use xlink:href="#u" transform="matrix(1,0,0,1,305,-1384.1333333333334) translate(1042.3466666666668 146.375)"/><use xlink:href="#v" transform="matrix(1,0,0,1,305,-1384.1333333333334) translate(0 197.24166666666667)"/><use xlink:href="#f" transform="matrix(1,0,0,1,305,-1384.1333333333334) translate(140.00000000000003 197.24166666666667)"/><use xlink:href="#n" transform="matrix(1,0,0,1,305,-1384.1333333333334) translate(202.3466666666667 197.24166666666667)"/><use xlink:href="#w" transform="matrix(1,0,0,1,305,-1384.1333333333334) translate(365.68000000000006 197.24166666666667)"/><use xlink:href="#g" transform="matrix(1,0,0,1,305,-1384.1333333333334) translate(552.3466666666668 197.24166666666667)"/><use xlink:href="#h" transform="matrix(1,0,0,1,305,-1384.1333333333334) translate(739.0133333333335 197.24166666666667)"/><use xlink:href="#x" transform="matrix(1,0,0,1,305,-1384.1333333333334) translate(785.6800000000002 197.24166666666667)"/><use xlink:href="#y" transform="matrix(1,0,0,1,305,-1384.1333333333334) translate(834.5400000000002 197.24166666666667)"/><use xlink:href="#k" transform="matrix(1,0,0,1,305,-1384.1333333333334) translate(881.2066666666668 197.24166666666667)"/><use xlink:href="#z" transform="matrix(1,0,0,1,305,-1384.1333333333334) translate(1021.2066666666668 197.24166666666667)"/><path d="M320-1102.4h160v160H320z" stroke="#000" stroke-width="4" fill="#c1e4f7"/><use xlink:href="#A" transform="matrix(1,0,0,1,324.9999999999998,-1097.3999999999996) translate(16.388888888889028 90.0113888888888)"/><path d="M480-1102.4h160v160H480z" stroke="#000" stroke-width="4" fill="#c1e4f7"/><use xlink:href="#B" transform="matrix(1,0,0,1,484.9999999999998,-1097.3999999999996) translate(16.666666666666657 89.82916666666667)"/><path d="M640-1102.4h160v160H640z" stroke="#000" stroke-width="4" fill="#c1e4f7"/><use xlink:href="#C" transform="matrix(1,0,0,1,644.9999999999998,-1097.3999999999996) translate(16.666666666666657 89.82916666666667)"/><path d="M80-1090.53h240V-968H80z" stroke="#000" stroke-opacity="0" stroke-width="10" fill="#fff" fill-opacity="0"/><use xlink:href="#D" transform="matrix(1,0,0,1,85,-1085.5333333333328) translate(59.058950617283955 65.7611111111111)"/><path d="M1000.93-1140H1640v235.07h-639.07z" stroke="#000" stroke-opacity="0" stroke-width="10" fill="#fff" fill-opacity="0"/><use xlink:href="#E" transform="matrix(1,0,0,1,1005.9316260566882,-1135) translate(15.887962962963002 94.0111111111111)"/><use xlink:href="#F" transform="matrix(1,0,0,1,1005.9316260566882,-1135) translate(195.3682098765432 94.0111111111111)"/><use xlink:href="#G" transform="matrix(1,0,0,1,1005.9316260566882,-1135) translate(247.46697530864196 94.0111111111111)"/><use xlink:href="#H" transform="matrix(1,0,0,1,1005.9316260566882,-1135) translate(429.42191358024684 94.0111111111111)"/><use xlink:href="#I" transform="matrix(1,0,0,1,1005.9316260566882,-1135) translate(119.89012345679015 150.27777777777777)"/><use xlink:href="#J" transform="matrix(1,0,0,1,1005.9316260566882,-1135) translate(278.53086419753083 150.27777777777777)"/><path d="M995.93-1022.47H837.45" stroke="#c92d39" stroke-width="10" fill="none"/><path d="M1000.93-1017.5h-5.13v-9.94h5.13z" stroke="#c92d39" stroke-width=".05" fill="#c92d39"/><path d="M818.18-1022.47l14.27-4.63v9.27z" stroke="#c92d39" stroke-width="10" fill="#c92d39"/><path d="M1180-480h160v160h-160z" stroke="#000" stroke-width="4" fill="#c1e4f7"/><use xlink:href="#K" transform="matrix(1,0,0,1,1185,-475) translate(18.810493827160535 94.72638888888883)"/><path d="M1335.97-480h160v160h-160z" stroke="#000" stroke-width="4" fill="#c1e4f7"/><use xlink:href="#L" transform="matrix(1,0,0,1,1340.9675948947456,-475) translate(18.810493827160535 94.72638888888883)"/><path d="M1495.97-480h160v160h-160z" stroke="#000" stroke-width="4" fill="#c1e4f7"/><use xlink:href="#M" transform="matrix(1,0,0,1,1500.9675948947456,-475) translate(21.285802469135845 94.72638888888883)"/><path d="M1170-828.73v13.42h554.3" stroke="#999" stroke-width="10" fill="none"/><path d="M1174.97-828.6h-9.94v-5.13h9.94z" stroke="#999" stroke-width=".05" fill="#999"/><path d="M1743.55-815.3l-14.26 4.62v-9.27z" stroke="#999" stroke-width="10" fill="#999"/><path d="M1329.33-828.73v4.2h2.98v4.22" stroke="#999" stroke-width="10" fill="none"/><path d="M1334.3-828.6h-9.94v-5.13h9.95z" stroke="#999" stroke-width=".05" fill="#999"/><path d="M1332.3-820.44v5.13" stroke="#999" stroke-width="10" fill="none"/><path d="M1279.33-900h100v66.27h-100z" stroke="#000" stroke-opacity="0" stroke-width="10" fill="#fff" fill-opacity="0"/><use xlink:href="#N" transform="matrix(1,0,0,1,1284.3333333333333,-895) translate(31.97530864197531 41.073611111111106)"/><path d="M1488.67-828.73v6.86" stroke="#999" stroke-width="10" fill="none"/><path d="M1493.64-828.6h-9.95v-5.13h9.94z" stroke="#999" stroke-width=".05" fill="#999"/><path d="M1488.67-822v5.13" stroke="#999" stroke-width="10" fill="none"/><path d="M1438.67-900h100v66.27h-100z" stroke="#000" stroke-opacity="0" stroke-width="10" fill="#fff" fill-opacity="0"/><use xlink:href="#O" transform="matrix(1,0,0,1,1443.6666666666665,-895) translate(31.97530864197531 41.073611111111106)"/><path d="M1648-828.73v6.86" stroke="#999" stroke-width="10" fill="none"/><path d="M1652.97-828.6h-9.94v-5.13h9.94z" stroke="#999" stroke-width=".05" fill="#999"/><path d="M1648-822v5.13" stroke="#999" stroke-width="10" fill="none"/><path d="M1598-900h100v66.27h-100z" stroke="#000" stroke-opacity="0" stroke-width="10" fill="#fff" fill-opacity="0"/><use xlink:href="#P" transform="matrix(1,0,0,1,1602.9999999999998,-895) translate(31.97530864197531 41.073611111111106)"/><path d="M1170-828.73v6.86" stroke="#999" stroke-width="10" fill="none"/><path d="M1174.97-828.6h-9.94v-5.13h9.94z" stroke="#999" stroke-width=".05" fill="#999"/><path d="M1170-822v5.13" stroke="#999" stroke-width="10" fill="none"/><path d="M1120-900h100v66.27h-100z" stroke="#000" stroke-opacity="0" stroke-width="10" fill="#fff" fill-opacity="0"/><use xlink:href="#Q" transform="matrix(1,0,0,1,1125,-895) translate(31.97530864197531 41.073611111111106)"/><path d="M1180-682.12h160v160h-160z" stroke="#000" stroke-width="4" fill="#c1e4f7"/><use xlink:href="#R" transform="matrix(1,0,0,1,1184.9999999999998,-677.118547986076) translate(16.388888888889028 90.0113888888888)"/><path d="M1340-682.12h160v160h-160z" stroke="#000" stroke-width="4" fill="#c1e4f7"/><use xlink:href="#S" transform="matrix(1,0,0,1,1344.9999999999998,-677.118547986076) translate(16.666666666666657 89.82916666666667)"/><path d="M1500-682.12h160v160h-160z" stroke="#000" stroke-width="4" fill="#c1e4f7"/><use xlink:href="#T" transform="matrix(1,0,0,1,1504.9999999999998,-677.118547986076) translate(16.666666666666657 89.82916666666667)"/><path d="M906.36-893.93h240v122.53h-240z" stroke="#000" stroke-opacity="0" stroke-width="10" fill="#fff" fill-opacity="0"/><use xlink:href="#U" transform="matrix(1,0,0,1,911.3578650754187,-888.9280623238847) translate(13.407407407407419 65.7611111111111)"/><use xlink:href="#V" transform="matrix(1,0,0,1,911.3578650754187,-888.9280623238847) translate(52.48148148148149 65.7611111111111)"/><use xlink:href="#W" transform="matrix(1,0,0,1,911.3578650754187,-888.9280623238847) translate(104.58024691358025 65.7611111111111)"/><path d="M1648.83-669.6h240v122.55h-240z" stroke="#000" stroke-opacity="0" stroke-width="10" fill="#fff" fill-opacity="0"/><use xlink:href="#X" transform="matrix(1,0,0,1,1653.8329189457977,-664.5867727498751) translate(31.707098765432107 41.042361111111106)"/><use xlink:href="#Y" transform="matrix(1,0,0,1,1653.8329189457977,-664.5867727498751) translate(61.72901234567902 97.30902777777777)"/><path d="M1641.24-452.53h240V-330h-240z" stroke="#000" stroke-opacity="0" stroke-width="10" fill="#fff" fill-opacity="0"/><use xlink:href="#Z" transform="matrix(1,0,0,1,1646.2424995856127,-447.5322393502395) translate(59.058950617283955 41.042361111111106)"/><use xlink:href="#aa" transform="matrix(1,0,0,1,1646.2424995856127,-447.5322393502395) translate(35.67962962962963 97.30902777777777)"/><use xlink:href="#ab" transform="matrix(1,0,0,1,1646.2424995856127,-447.5322393502395) translate(90.25308641975309 97.30902777777777)"/><path d="M1260-689.12v-38h-87.9v-52.75" stroke="#979ea8" stroke-width="10" fill="none"/><path d="M1264.97-684.12h-9.94v-5.13h9.94z" stroke="#979ea8" stroke-width=".05" fill="#979ea8"/><path d="M1172.1-799.13l4.63 14.26h-9.27z" stroke="#979ea8" stroke-width="10" fill="#979ea8"/><path d="M1420-689.12v-38h-89.77v-52.75" stroke="#979ea8" stroke-width="10" fill="none"/><path d="M1424.97-684.12h-9.94v-5.13h9.94z" stroke="#979ea8" stroke-width=".05" fill="#979ea8"/><path d="M1330.23-799.13l4.64 14.26h-9.27z" stroke="#979ea8" stroke-width="10" fill="#979ea8"/><path d="M1580-689.12v-40.94h-91.63v-49.8" stroke="#979ea8" stroke-width="10" fill="none"/><path d="M1584.97-684.12h-9.94v-5.13h9.94z" stroke="#979ea8" stroke-width=".05" fill="#979ea8"/><path d="M1488.37-799.13l4.64 14.26h-9.26z" stroke="#979ea8" stroke-width="10" fill="#979ea8"/><path d="M640-184.55h160v160H640z" stroke="#000" stroke-width="4" fill="#c1e4f7"/><use xlink:href="#ac" transform="matrix(1,0,0,1,645,-179.5499917122488) translate(50.24691358024693 94.72638888888883)"/><path d="M863.64-548.73v13.42h195.5" stroke="#999" stroke-width="10" fill="none"/><path d="M868.62-548.6h-9.95v-5.13h9.95z" stroke="#999" stroke-width=".05" fill="#999"/><path d="M1078.4-535.3l-14.27 4.62v-9.27z" stroke="#999" stroke-width="10" fill="#999"/><path d="M1022.98-548.73v8.42" stroke="#999" stroke-width="10" fill="none"/><path d="M1027.95-548.6H1018v-5.13h9.95z" stroke="#999" stroke-width=".05" fill="#999"/><path d="M1022.98-540.44v5.13" stroke="#999" stroke-width="10" fill="none"/><path d="M972.98-620h100v66.27h-100z" stroke="#000" stroke-opacity="0" stroke-width="10" fill="#fff" fill-opacity="0"/><use xlink:href="#ad" transform="matrix(1,0,0,1,977.9754682579146,-615) translate(31.97530864197531 41.073611111111106)"/><path d="M813.64-620h100v66.27h-100z" stroke="#000" stroke-opacity="0" stroke-width="10" fill="#fff" fill-opacity="0"/><use xlink:href="#Q" transform="matrix(1,0,0,1,818.6421349245813,-615) translate(31.97530864197531 41.073611111111106)"/><path d="M640-360h160v160H640z" stroke="#000" stroke-width="4" fill="#c1e4f7"/><use xlink:href="#ae" transform="matrix(1,0,0,1,645,-355) translate(16.388888888889028 90.0113888888888)"/><path d="M600-613.93h240v122.53H600z" stroke="#000" stroke-opacity="0" stroke-width="10" fill="#fff" fill-opacity="0"/><use xlink:href="#U" transform="matrix(1,0,0,1,605,-608.9280623238847) translate(13.407407407407419 65.7611111111111)"/><use xlink:href="#V" transform="matrix(1,0,0,1,605,-608.9280623238847) translate(52.48148148148149 65.7611111111111)"/><use xlink:href="#W" transform="matrix(1,0,0,1,605,-608.9280623238847) translate(104.58024691358025 65.7611111111111)"/><path d="M800-345.86h240v122.53H800z" stroke="#000" stroke-opacity="0" stroke-width="10" fill="#fff" fill-opacity="0"/><use xlink:href="#X" transform="matrix(1,0,0,1,805,-340.8632355378761) translate(31.707098765432107 41.042361111111106)"/><use xlink:href="#Y" transform="matrix(1,0,0,1,805,-340.8632355378761) translate(61.72901234567902 97.30902777777777)"/><path d="M820-160h240v122.53H820z" stroke="#000" stroke-opacity="0" stroke-width="10" fill="#fff" fill-opacity="0"/><use xlink:href="#Z" transform="matrix(1,0,0,1,825,-155) translate(59.058950617283955 41.042361111111106)"/><use xlink:href="#af" transform="matrix(1,0,0,1,825,-155) translate(23.957407407407416 97.30902777777777)"/><use xlink:href="#ag" transform="matrix(1,0,0,1,825,-155) translate(78.53086419753086 97.30902777777777)"/><path d="M720-367v-81.66h146.5v-51.2" stroke="#979ea8" stroke-width="10" fill="none"/><path d="M724.98-362H715v-5.13H725z" stroke="#979ea8" stroke-width=".05" fill="#979ea8"/><path d="M866.5-519.13l4.65 14.26h-9.27z" stroke="#979ea8" stroke-width="10" fill="#979ea8"/><path d="M60-424.55h160v160H60z" stroke="#000" stroke-width="4" fill="#c1e4f7"/><use xlink:href="#ah" transform="matrix(1,0,0,1,65,-419.5499917122488) translate(37.870370370370395 94.72638888888883)"/><path d="M63.64-728.73v13.42h195.5" stroke="#999" stroke-width="10" fill="none"/><path d="M68.62-728.6h-9.95v-5.13h9.95z" stroke="#999" stroke-width=".05" fill="#999"/><path d="M278.4-715.3l-14.27 4.62v-9.27z" stroke="#999" stroke-width="10" fill="#999"/><path d="M222.97-728.73v8.42" stroke="#999" stroke-width="10" fill="none"/><path d="M227.95-728.6H218v-5.13h9.95z" stroke="#999" stroke-width=".05" fill="#999"/><path d="M222.97-720.44v5.13" stroke="#999" stroke-width="10" fill="none"/><path d="M172.97-800h100v66.27h-100z" stroke="#000" stroke-opacity="0" stroke-width="10" fill="#fff" fill-opacity="0"/><use xlink:href="#ad" transform="matrix(1,0,0,1,177.9754682579146,-795) translate(31.97530864197531 41.073611111111106)"/><path d="M13.64-800h100v66.27h-100z" stroke="#000" stroke-opacity="0" stroke-width="10" fill="#fff" fill-opacity="0"/><use xlink:href="#Q" transform="matrix(1,0,0,1,18.64213492458134,-795) translate(31.97530864197531 41.073611111111106)"/><path d="M60-600h160v160H60z" stroke="#000" stroke-width="4" fill="#c1e4f7"/><use xlink:href="#A" transform="matrix(1,0,0,1,65,-595) translate(16.388888888889028 90.0113888888888)"/><path d="M-200-793.93H40v122.53h-240z" stroke="#000" stroke-opacity="0" stroke-width="10" fill="#fff" fill-opacity="0"/><g><use xlink:href="#U" transform="matrix(1,0,0,1,-195,-788.9280623238847) translate(13.407407407407419 65.7611111111111)"/><use xlink:href="#V" transform="matrix(1,0,0,1,-195,-788.9280623238847) translate(52.48148148148149 65.7611111111111)"/><use xlink:href="#W" transform="matrix(1,0,0,1,-195,-788.9280623238847) translate(104.58024691358025 65.7611111111111)"/></g><path d="M-178.6-400h240v122.53h-240z" stroke="#000" stroke-opacity="0" stroke-width="10" fill="#fff" fill-opacity="0"/><g><use xlink:href="#Z" transform="matrix(1,0,0,1,-173.60467429139726,-395) translate(59.058950617283955 41.042361111111106)"/><use xlink:href="#af" transform="matrix(1,0,0,1,-173.60467429139726,-395) translate(23.957407407407416 97.30902777777777)"/><use xlink:href="#ag" transform="matrix(1,0,0,1,-173.60467429139726,-395) translate(78.53086419753086 97.30902777777777)"/></g><path d="M140-607v-51.66H66.5v-21.2" stroke="#979ea8" stroke-width="10" fill="none"/><path d="M144.97-602h-9.94v-5.13h9.94z" stroke="#979ea8" stroke-width=".05" fill="#979ea8"/><path d="M66.5-699.13l4.65 14.26h-9.27z" stroke="#979ea8" stroke-width="10" fill="#979ea8"/><path d="M-178.6-583.78h240v122.53h-240z" stroke="#000" stroke-opacity="0" stroke-width="10" fill="#fff" fill-opacity="0"/><g><use xlink:href="#X" transform="matrix(1,0,0,1,-173.60467429139726,-578.7820487320428) translate(31.707098765432107 41.042361111111106)"/><use xlink:href="#Y" transform="matrix(1,0,0,1,-173.60467429139726,-578.7820487320428) translate(61.72901234567902 97.30902777777777)"/></g><path d="M399.94-935.4l-1.56 126.5-2.87 46.8-3.47 33.4-3.8 25.94-4.02 21.08-4.1 17.58-4.17 14.95-4.2 12.9-4.18 11.3-4.18 9.95-4.17 8.87-4.15 7.95-4.14 7.17-4.12 6.5-4.13 5.95-4.14 5.45-4.13 5-4.17 4.64-4.2 4.3-4.24 3.98-4.3 3.7-4.35 3.46-4.43 3.22-4.53 3-4.63 2.82-4.76 2.62-4.9 2.44-5.1 2.25-5.25 2.1-5.5 1.9-5.73 1.73-6 1.54-5.04 1.07" stroke="#fc9432" stroke-width="10" stroke-linejoin="round" fill="none"/><path d="M404.9-935.2l-9.94-.13.06-5.07h9.96z" stroke="#fc9432" stroke-width=".05" fill="#fc9432"/><path d="M238.1-521.52l13.78-5.96.87 9.23z" stroke="#fc9432" stroke-width="10" fill="#fc9432"/><path d="M719.9-935.4l-.18 8.34-.94 14.73-1.73 16.43-2.75 18.57-4.08 21.3-5.87 24.95-8.42 30.1-12.42 38.07-20 53.5-104.1 250.07-7.95 24.35-5 17.8-3.26 13.9-2.17 11.26-1.4 9.38-.83 7.98-.44 6.9-.13 6.06.1 5.37.3 4.8.47 4.35.58 3.96.7 3.63.78 3.37.87 3.1.94 2.9 1 2.74 1.1 2.57 1.13 2.43 1.2 2.3 1.28 2.2 1.34 2.12 1.4 2.02 1.48 1.95 1.56 1.88 1.64 1.82 1.74 1.77 1.83 1.72 1.95 1.67 2.07 1.64 2.2 1.62 2.37 1.57 2.54 1.53 2.75 1.5 2.98 1.5 3.24 1.43 3.55 1.4 3.9 1.36 4.33 1.3 4.82 1.24 5.43 1.15.92.17" stroke="#fc9432" stroke-width="10" stroke-linejoin="round" fill="none"/><path d="M724.87-935.16l-9.95-.2.1-5.04h9.96z" stroke="#fc9432" stroke-width=".05" fill="#fc9432"/><path d="M621.87-284.06l-14.6 3.45.76-9.25z" stroke="#fc9432" stroke-width="10" fill="#fc9432"/><path d="M560.1-935.4l.06 2.95.46 7.33.72 6.8.93 6.33 1.14 5.97 1.32 5.62 1.5 5.32 1.64 5.1 1.82 4.86 1.97 4.7 2.13 4.53 2.3 4.4 2.5 4.3 2.66 4.22 2.87 4.14 3.12 4.1 3.36 4.05 3.64 4.05 3.98 4.06 4.35 4.1 4.8 4.13 5.3 4.2 5.97 4.34 6.74 4.48 7.75 4.7 9.1 4.97 10.93 5.42 13.74 6.1 18.8 7.42 33.85 11.67 91.35 30.03 18.8 7.36 20.07 8.82 24.33 11.94 37.9 20.68 94.54 53.52 22.97 11.26 18.65 8.2 16.4 6.4 15.06 5.14 14.17 4.2 13.6 3.4 13.27 2.75 13.07 2.14 8.93 1.08" stroke="#fc9432" stroke-width="10" stroke-linejoin="round" fill="none"/><path d="M565.08-935.37l-9.95.2-.1-5.23h9.95z" stroke="#fc9432" stroke-width=".05" fill="#fc9432"/><path d="M1161.85-603.05l-14.5 3.8.52-9.25z" stroke="#fc9432" stroke-width="10" fill="#fc9432"/><path d="M-120 140H40v160h-160z" stroke="#000" stroke-width="4" fill="#c1e4f7"/><g><use xlink:href="#ai" transform="matrix(1,0,0,1,-115.00000000000023,145) translate(16.388888888889028 90.0113888888888)"/></g><path d="M40 140h160v160H40z" stroke="#000" stroke-width="4" fill="#c1e4f7"/><g><use xlink:href="#aj" transform="matrix(1,0,0,1,44.99999999999977,145) translate(63.33333333333333 89.82916666666667)"/></g><path d="M200 140h160v160H200z" stroke="#000" stroke-width="4" fill="#c1e4f7"/><g><use xlink:href="#aj" transform="matrix(1,0,0,1,204.99999999999977,145) translate(63.33333333333333 89.82916666666667)"/></g><path d="M360 140h160v160H360z" stroke="#000" stroke-width="4" fill="#c1e4f7"/><g><use xlink:href="#ak" transform="matrix(1,0,0,1,364.9999999999998,145) translate(16.666666666666657 89.82916666666667)"/></g><path d="M520 140h160v160H520z" stroke="#000" stroke-width="4" fill="#c1e4f7"/><g><use xlink:href="#aj" transform="matrix(1,0,0,1,524.9999999999994,145) translate(63.33333333333333 89.82916666666667)"/></g><path d="M680 140h160v160H680z" stroke="#000" stroke-width="4" fill="#c1e4f7"/><g><use xlink:href="#aj" transform="matrix(1,0,0,1,684.9999999999998,145) translate(63.33333333333333 89.82916666666667)"/></g><path d="M840 140h160v160H840z" stroke="#000" stroke-width="4" fill="#c1e4f7"/><g><use xlink:href="#al" transform="matrix(1,0,0,1,844.9999999999998,145) translate(16.666666666666657 89.82916666666667)"/></g><path d="M1000 140h160v160h-160z" stroke="#000" stroke-width="4" fill="#c1e4f7"/><g><use xlink:href="#aj" transform="matrix(1,0,0,1,1004.9999999999998,145) translate(63.33333333333333 89.82916666666667)"/></g><path d="M1160 140h160v160h-160z" stroke="#000" stroke-width="4" fill="#c1e4f7"/><g><use xlink:href="#aj" transform="matrix(1,0,0,1,1164.9999999999995,145) translate(63.33333333333333 89.82916666666667)"/></g><path d="M-420 151.87h240V274.4h-240z" stroke="#000" stroke-opacity="0" stroke-width="10" fill="#fff" fill-opacity="0"/><g><use xlink:href="#am" transform="matrix(1,0,0,1,-415,156.86666666666667) translate(30.53487654320989 65.7611111111111)"/></g><path d="M1320 140h160v160h-160z" stroke="#000" stroke-width="4" fill="#c1e4f7"/><g><use xlink:href="#an" transform="matrix(1,0,0,1,1325,145) translate(16.666666666666657 89.82916666666667)"/></g><path d="M1480 140h160v160h-160z" stroke="#000" stroke-width="4" fill="#c1e4f7"/><g><use xlink:href="#ao" transform="matrix(1,0,0,1,1485,145) translate(16.666666666666657 89.82916666666667)"/></g><path d="M1640 140h160v160h-160z" stroke="#000" stroke-width="4" fill="#c1e4f7"/><g><use xlink:href="#ap" transform="matrix(1,0,0,1,1645,145) translate(16.666666666666657 89.82916666666667)"/></g><path d="M1800 140h160v160h-160z" stroke="#000" stroke-width="4" fill="#c1e4f7"/><g><use xlink:href="#aj" transform="matrix(1,0,0,1,1804.9999999999995,145) translate(63.33333333333333 89.82916666666667)"/></g><path d="M227-486.97l2.15.04 6.15.4 5.35.55 4.7.7 4.16.78 3.75.88 3.36.94 3.05.98 2.8 1.04 2.54 1.07 2.35 1.12 2.2 1.15 2.03 1.17 1.9 1.2 1.8 1.26 1.7 1.28 1.6 1.32 1.5 1.37 1.44 1.4 1.38 1.47 1.3 1.52 1.26 1.6 1.2 1.64 1.16 1.74 1.12 1.84 1.06 1.93 1.02 2.07.98 2.2.93 2.35.88 2.54.84 2.75.77 3.02.72 3.3.62 3.7.52 4.12.4 4.68.2 5.4v6.33l-.32 7.62-.8 9.48-1.6 12.52-3.18 18.58-26.1 125.2-2.18 17.08-1.16 13.67-.48 11.47v9.9l.35 8.73.65 7.8.9 7.07 1.07 6.45 1.27 5.95 1.4 5.52 1.56 5.14 1.7 4.85 1.8 4.56 1.93 4.35 2.05 4.15 2.17 3.97 2.3 3.8 2.45 3.68 2.6 3.56 2.73 3.46 2.9 3.36 3.1 3.3 3.28 3.2 3.5 3.17.3.26 3.88 3.2 4.36 3.27 4.94 3.4 5.64 3.55 6.5 3.72 7.57 3.92 8.92 4.16 10.68 4.43 13.03 4.8 16.34 5.22 21.23 5.83 29.32 6.73 46.26 8.56 259.8 39.27 31.25 7.17 22.88 6.28 17.75 5.68 14.27 5.24 11.77 4.9 9.88 4.6L856.8 46l7.27 4.16 6.33 3.98 5.57 3.84 4.92 3.7 4.4 3.6 3.92 3.52 3.52 3.43 3.2 3.38 2.88 3.33 2.63 3.3 2.4 3.25 2.17 3.26 1.98 3.25 1.8 3.25 1.65 3.28 1.5 3.3.6 1.54" stroke="#fc9432" stroke-width="10" stroke-linejoin="round" fill="none"/><path d="M227.23-491.94l-.2 9.95-5.03-.1v-9.95z" stroke="#fc9432" stroke-width=".05" fill="#fc9432"/><path d="M917.03 122.1l-7.18-13.18 9.12-1.7z" stroke="#fc9432" stroke-width="10" fill="#fc9432"/><path d="M633-250.1l-15.83.34-20.92 1.3-20.07 2.12-18.6 2.74-16.86 3.2-15.1 3.55-13.45 3.74-11.92 3.86-10.58 3.93-9.4 3.93-8.34 3.93-7.46 3.9-6.68 3.85-6 3.82-5.42 3.75-4.9 3.7-4.42 3.68-4.02 3.62-3.67 3.6-3.35 3.55-3.06 3.55-2.8 3.53-2.56 3.52-2.35 3.54-2.14 3.54-1.95 3.57-1.8 3.6-1.6 3.64-1.47 3.7-.1.3-1.34 3.85-1.24 4.15-1.13 4.48-1.02 4.87-.88 5.34-.73 5.9-.53 6.6-.27 7.5.03 8.6.46 10.1 1.08 12.25 2.03 15.52 3.76 21.62 10.1 45.78 16.53 72.43 3.58 20.58.62 4.6" stroke="#fc9432" stroke-width="10" stroke-linejoin="round" fill="none"/><path d="M638-245.23l-5.02.1-.2-9.94 5.22-.1z" stroke="#fc9432" stroke-width=".05" fill="#fc9432"/><path d="M438.73 121.87L433 108l9.23-.72z" stroke="#fc9432" stroke-width="10" fill="#fc9432"/><path d="M1174.04-568.35l-5.2 4.02-8.64 7.28-8.15 7.47-7.7 7.67-7.24 7.85-6.82 8.06-6.43 8.27-6.05 8.48-5.66 8.7-5.3 8.9-4.92 9.17-4.56 9.4-4.2 9.65-3.82 9.92-3.45 10.2-3.07 10.46-2.66 10.77-2.25 11.06-1.82 11.37-1.36 11.68-.9 12-.4 12.33.1 12.64.67 12.95 1.24 13.26 1.84 13.56 2.47 13.82 3.13 14.1 3.82 14.32 4.53 14.53 5.27 14.7 6.03 14.84 6.8 14.94 7.6 14.98 8.42 14.97 7.58 12.35 7.46 11.2 8.1 11.1 8.84 11.1 9.78 11.3 11 11.67 12.72 12.4 15.4 13.8 20.88 17.16 90.78 69.66 11.03 9.88 8.5 8.3 6.96 7.36 5.86 6.77 5.06 6.36 4.43 6.08 3.93 5.88 3.5 5.76 3.13 5.68 2.83 5.65 2.53 5.66 2.28 5.73 2.03 5.8 1.8 5.95 1.6 6.12.87 4.1" stroke="#fc9432" stroke-width="10" stroke-linejoin="round" fill="none"/><path d="M1178-576.3v11.18l-1.02.78-6.08-7.87 6.43-4.98z" stroke="#fc9432" stroke-width=".05" fill="#fc9432"/><path d="M1386.14 121.9l-6.03-13.74 9.24-.9z" stroke="#fc9432" stroke-width="10" fill="#fc9432"/><defs><path d="M362-457h74L288-235 456 0h-82L248-178 129 0H47l161-232L50-457h79l119 169" id="aq"/><use transform="matrix(0.04666666666666667,0,0,0.04666666666666667,0,0)" xlink:href="#aq" id="a"/><path d="M45-438h411v61H45v-61zm0 207h411v61H45v-61" id="ar"/><use transform="matrix(0.04666666666666667,0,0,0.04666666666666667,0,0)" xlink:href="#ar" id="b"/><path d="M131-670h286v60H195V32h223v57H131v-759" id="as"/><path d="M298-624v570h112V1H116v-55h115v-483l-123 36-17-39 160-84h47" id="at"/><path d="M298-46c0 31-26 57-59 57s-60-25-60-57c0-31 27-58 60-58s59 27 59 58" id="au"/><path d="M230 34c-6-47-51-27-51-80 0-30 24-57 57-57 36 0 70 32 70 83 0 52-37 117-107 188l-34-30c36-40 54-52 65-104" id="av"/><g id="c"><use transform="matrix(0.04666666666666667,0,0,0.04666666666666667,0,0)" xlink:href="#as"/><use transform="matrix(0.04666666666666667,0,0,0.04666666666666667,23.333333333333336,0)" xlink:href="#at"/><use transform="matrix(0.04666666666666667,0,0,0.04666666666666667,46.66666666666667,0)" xlink:href="#au"/><use transform="matrix(0.04666666666666667,0,0,0.04666666666666667,70,0)" xlink:href="#av"/></g><path d="M397-605c6 27-41 146-58 193l-55-13c11-40 29-75 31-123 0-22-6-41-6-63 0-40 24-55 43-55 20 0 45 16 45 61zm-173 0c6 27-40 146-57 193l-56-13c11-40 30-75 32-123 0-22-7-41-7-63 0-40 24-55 43-55 20 0 45 16 45 61" id="aw"/><path d="M366-269c2-83-14-137-109-139-42 0-94 12-131 51l-35-46c43-44 101-64 163-64 110 0 181 69 181 184V0h-68v-50C317-9 259 11 203 11 23 8-5-195 154-249c63-21 138-20 212-20zm3 55c-54 1-120-4-167 7-57 14-81 51-81 84 0 41 35 79 96 79 60 0 104-36 120-54 39-46 31-65 32-116" id="ax"/><path d="M144-665c2 12-11 11-11 22v256c29-50 83-81 141-81 90 0 183 74 183 234 0 166-97 245-191 245-55 0-105-26-135-71L106 0H60v-665h84zm105 259c-79 0-116 64-116 163 0 40 0 66 3 90 12 87 80 100 111 100 45 0 136-26 136-166 0-161-91-187-134-187" id="ay"/><path d="M457-381l-51 59c-8-6-3-15-7-23-3-5-40-60-118-60-84 0-151 65-151 169 0 107 68 182 157 182 46 0 90-21 121-56l42 49c-44 47-105 72-169 72C152 11 56-90 56-228c0-137 96-238 230-238 73 0 135 32 171 85" id="az"/><g id="d"><use transform="matrix(0.04666666666666667,0,0,0.04666666666666667,0,0)" xlink:href="#aw"/><use transform="matrix(0.04666666666666667,0,0,0.04666666666666667,23.333333333333336,0)" xlink:href="#ax"/><use transform="matrix(0.04666666666666667,0,0,0.04666666666666667,46.66666666666667,0)" xlink:href="#ay"/><use transform="matrix(0.04666666666666667,0,0,0.04666666666666667,70,0)" xlink:href="#az"/><use transform="matrix(0.04666666666666667,0,0,0.04666666666666667,93.33333333333334,0)" xlink:href="#aw"/><use transform="matrix(0.04666666666666667,0,0,0.04666666666666667,116.6666666666667,0)" xlink:href="#av"/></g><path d="M244-566c-67 0-104 39-115 80l-51-40c37-63 103-101 174-101 102 0 181 78 181 175 0 90-64 153-110 196-45 42-117 104-169 195h261c11 1 12-12 24-9V0H73v-44c52-104 110-168 181-232 45-41 110-95 110-171 0-67-54-119-120-119" id="aA"/><path d="M369-670V89H83V32h223v-642H84v-60h285" id="aB"/><g id="e"><use transform="matrix(0.04666666666666667,0,0,0.04666666666666667,0,0)" xlink:href="#aA"/><use transform="matrix(0.04666666666666667,0,0,0.04666666666666667,23.333333333333336,0)" xlink:href="#aB"/></g><path d="M789-314L550-75H394l181-181H58v-117h517L394-554h156" id="aC"/><use transform="matrix(0.04666666666666667,0,0,0.04666666666666667,0,0)" xlink:href="#aC" id="f"/><path d="M403-604c-124 64-194 197-195 342 0 155 80 303 217 382l-32 53C235 90 139-76 139-258c0-183 98-340 253-408l30 61c-7 4-12 1-19 1" id="aD"/><path d="M276-405c-78 10-133 62-133 142V0H70v-665h83c3 11-10 14-10 24v265c34-51 90-92 152-92 88 0 138 91 138 191V0h-71v-275c9-55-26-138-86-130" id="aE"/><path d="M259-468c75 0 160 39 181 162 4 27 6 57 3 88H118c5 137 95 170 156 170 45 0 88-18 118-51l40 39c-39 47-99 70-164 70C144 10 49-71 49-223c0-167 101-245 210-245zM121-274h251c9-74-44-139-118-139-49 0-119 31-133 139" id="aF"/><path d="M371-390v-275h77c0 12-10 17-10 28l1 595c0 14 1 28 5 42h-72c-7-22-3-46-4-73-29 51-83 83-141 83-88 0-182-73-182-242 0-175 105-237 192-237 63 0 112 32 134 79zM243-53c73 0 122-71 122-170 0-51-1-77-7-98-18-68-78-89-118-89-53 0-125 36-125 166 0 150 76 191 128 191" id="aG"/><path d="M425-349c-21-29-38-57-93-57-32 0-86 11-128 77-31 49-32 79-32 107V1H99v-458h75l-2 88c45-108 209-131 286-49" id="aH"/><g id="g"><use transform="matrix(0.04666666666666667,0,0,0.04666666666666667,0,0)" xlink:href="#aD"/><use transform="matrix(0.04666666666666667,0,0,0.04666666666666667,23.333333333333336,0)" xlink:href="#aE"/><use transform="matrix(0.04666666666666667,0,0,0.04666666666666667,46.66666666666667,0)" xlink:href="#aF"/><use transform="matrix(0.04666666666666667,0,0,0.04666666666666667,70,0)" xlink:href="#ax"/><use transform="matrix(0.04666666666666667,0,0,0.04666666666666667,93.33333333333334,0)" xlink:href="#aG"/><use transform="matrix(0.04666666666666667,0,0,0.04666666666666667,116.6666666666667,0)" xlink:href="#aF"/><use transform="matrix(0.04666666666666667,0,0,0.04666666666666667,140.00000000000003,0)" xlink:href="#aH"/></g><path d="M222-523h63v171h171v61H285v187h-63v-187H45v-61h177v-171" id="aI"/><use transform="matrix(0.04666666666666667,0,0,0.04666666666666667,0,0)" xlink:href="#aI" id="h"/><path d="M411-467c0 61-37 114-93 135 65 24 107 87 107 161 0 97-73 182-192 182-62 0-122-25-164-71l53-63c9 9 5 18 13 28 4 5 39 42 97 42 73 0 126-59 126-127 1-84-81-129-178-116v-56c59 0 87-11 98-16 103-41 81-197-42-195-39 0-78 17-107 48l-39-43c39-43 93-67 149-67 99 0 172 73 172 158" id="aJ"/><path d="M382-503l48 44-130 134 127 134-46 46-127-133-125 129-44-44 126-131L85-457l47-46 124 131" id="aK"/><g id="i"><use transform="matrix(0.04666666666666667,0,0,0.04666666666666667,0,0)" xlink:href="#aJ"/><use transform="matrix(0.04666666666666667,0,0,0.04666666666666667,23.333333333333336,0)" xlink:href="#aK"/></g><path d="M258-631c91 0 162 66 162 148 0 60-39 118-99 150 70 32 120 99 120 172 0 95-82 171-191 171C143 10 60-64 60-157c0-72 51-139 125-174-56-29-95-85-95-146 0-84 73-154 168-154zm-21 328c-59 25-105 78-105 137 0 63 53 113 121 113 67 0 117-49 117-109 0-61-53-116-133-141zm16-269c-54 0-96 40-96 89 0 82 110 125 110 125 49-26 85-73 85-121 0-52-43-93-99-93" id="aL"/><use transform="matrix(0.04666666666666667,0,0,0.04666666666666667,0,0)" xlink:href="#aL" id="j"/><path d="M60 71c12 22 12 44 61 44 61 0 93-68 110-117L46-457h89c0 12-6 19-2 30L267-91c40-122 91-235 121-366h75C406-283 326-121 275 52c-29 99-167 167-253 83" id="aM"/><path d="M298 9c-94 0-131-85-131-173 0-78 4-156 10-234H70l1-59h109l8-122 79-13c4 10-4 16-6 27-5 25-12 108-12 108h150v59H249c-9 66-12 213-6 267 6 55 43 73 77 73 28 0 63-12 102-41l22 57C405-14 352 9 298 9" id="aN"/><path d="M432-396l-42 63c-7 0-3-13-7-18-17-22-62-62-127-62-88-1-140 75-51 117 43 21 116 31 168 60 54 30 67 72 67 104 0 69-65 142-190 142-69 0-139-22-193-72l41-72c9 7 1 12 8 20 14 16 65 64 143 64 102 0 167-82 71-131-33-17-83-27-122-41-25-9-112-38-112-118 0-68 70-128 176-128 68 0 128 25 170 72" id="aO"/><g id="k"><use transform="matrix(0.04666666666666667,0,0,0.04666666666666667,0,0)" xlink:href="#ay"/><use transform="matrix(0.04666666666666667,0,0,0.04666666666666667,23.333333333333336,0)" xlink:href="#aM"/><use transform="matrix(0.04666666666666667,0,0,0.04666666666666667,46.66666666666667,0)" xlink:href="#aN"/><use transform="matrix(0.04666666666666667,0,0,0.04666666666666667,70,0)" xlink:href="#aF"/><use transform="matrix(0.04666666666666667,0,0,0.04666666666666667,93.33333333333334,0)" xlink:href="#aO"/></g><path d="M78-603l19-62c162 75 267 236 267 414C364-71 257 95 91 174l-19-60C207 42 293-98 293-248c0-148-83-285-215-355" id="aP"/><g id="l"><use transform="matrix(0.04666666666666667,0,0,0.04666666666666667,0,0)" xlink:href="#ax"/><use transform="matrix(0.04666666666666667,0,0,0.04666666666666667,23.333333333333336,0)" xlink:href="#aG"/><use transform="matrix(0.04666666666666667,0,0,0.04666666666666667,46.66666666666667,0)" xlink:href="#aG"/><use transform="matrix(0.04666666666666667,0,0,0.04666666666666667,70,0)" xlink:href="#aH"/><use transform="matrix(0.04666666666666667,0,0,0.04666666666666667,93.33333333333334,0)" xlink:href="#aF"/><use transform="matrix(0.04666666666666667,0,0,0.04666666666666667,116.6666666666667,0)" xlink:href="#aO"/><use transform="matrix(0.04666666666666667,0,0,0.04666666666666667,140.00000000000003,0)" xlink:href="#aO"/><use transform="matrix(0.04666666666666667,0,0,0.04666666666666667,163.33333333333337,0)" xlink:href="#aF"/><use transform="matrix(0.04666666666666667,0,0,0.04666666666666667,186.6666666666667,0)" xlink:href="#aO"/><use transform="matrix(0.04666666666666667,0,0,0.04666666666666667,210.00000000000006,0)" xlink:href="#aP"/></g><g id="m"><use transform="matrix(0.04666666666666667,0,0,0.04666666666666667,0,0)" xlink:href="#at"/><use transform="matrix(0.04666666666666667,0,0,0.04666666666666667,23.333333333333336,0)" xlink:href="#au"/></g><path d="M456-448c0 100-85 173-202 173H131V0H59v-623h190c118-13 207 74 207 175zm-72 4c0-65-58-113-135-113H131l-1 220h126c73 8 128-44 128-107" id="aQ"/><path d="M460-226c0 151-97 238-205 238C140 12 40-86 40-225c0-141 101-242 217-242 104 0 203 83 203 241zm-72 3c1-245-271-238-272-8-5 228 272 366 272 8" id="aR"/><path d="M274-405c-78 10-132 62-132 142V0H68v-457h74v81c34-51 89-92 151-92 88 0 139 91 139 191V0h-71v-275c9-55-27-138-87-130" id="aS"/><g id="n"><use transform="matrix(0.04666666666666667,0,0,0.04666666666666667,0,0)" xlink:href="#aQ"/><use transform="matrix(0.04666666666666667,0,0,0.04666666666666667,23.333333333333336,0)" xlink:href="#aM"/><use transform="matrix(0.04666666666666667,0,0,0.04666666666666667,46.66666666666667,0)" xlink:href="#aN"/><use transform="matrix(0.04666666666666667,0,0,0.04666666666666667,70,0)" xlink:href="#aE"/><use transform="matrix(0.04666666666666667,0,0,0.04666666666666667,93.33333333333334,0)" xlink:href="#aR"/><use transform="matrix(0.04666666666666667,0,0,0.04666666666666667,116.6666666666667,0)" xlink:href="#aS"/></g><path d="M162-475c-12-115 77-196 181-196 57 0 107 24 140 63l-33 66c-10 1-6-13-10-20-19-29-56-52-100-52-73 0-120 71-109 149v35h150v57H231V0h-69v-373H63v-57h99v-45" id="aT"/><path d="M85-665h202v607h134V0H79v-58h135v-549H85v-58" id="aU"/><g id="o"><use transform="matrix(0.04666666666666667,0,0,0.04666666666666667,0,0)" xlink:href="#aT"/><use transform="matrix(0.04666666666666667,0,0,0.04666666666666667,23.333333333333336,0)" xlink:href="#aU"/><use transform="matrix(0.04666666666666667,0,0,0.04666666666666667,46.66666666666667,0)" xlink:href="#aR"/><use transform="matrix(0.04666666666666667,0,0,0.04666666666666667,70,0)" xlink:href="#ax"/><use transform="matrix(0.04666666666666667,0,0,0.04666666666666667,93.33333333333334,0)" xlink:href="#aN"/></g><path d="M40-457h86c2 11-6 15-2 25L256-98c46-116 110-226 136-359h65C416-289 337-148 277 3h-56" id="aV"/><path d="M222 11C125 11 62-87 62-202l1-255h72v255c-10 73 36 159 104 155 73-5 123-71 123-158v-252h73v416c0 13 1 27 5 41h-76c-4-23-1-46-1-70-30 50-84 81-141 81" id="aW"/><g id="p"><use transform="matrix(0.04666666666666667,0,0,0.04666666666666667,0,0)" xlink:href="#aV"/><use transform="matrix(0.04666666666666667,0,0,0.04666666666666667,23.333333333333336,0)" xlink:href="#ax"/><use transform="matrix(0.04666666666666667,0,0,0.04666666666666667,46.66666666666667,0)" xlink:href="#aU"/><use transform="matrix(0.04666666666666667,0,0,0.04666666666666667,70,0)" xlink:href="#aW"/><use transform="matrix(0.04666666666666667,0,0,0.04666666666666667,93.33333333333334,0)" xlink:href="#aF"/><use transform="matrix(0.04666666666666667,0,0,0.04666666666666667,116.6666666666667,0)" xlink:href="#aP"/></g><g id="q"><use transform="matrix(0.04666666666666667,0,0,0.04666666666666667,0,0)" xlink:href="#aw"/><use transform="matrix(0.04666666666666667,0,0,0.04666666666666667,23.333333333333336,0)" xlink:href="#ax"/><use transform="matrix(0.04666666666666667,0,0,0.04666666666666667,46.66666666666667,0)" xlink:href="#ay"/><use transform="matrix(0.04666666666666667,0,0,0.04666666666666667,70,0)" xlink:href="#az"/><use transform="matrix(0.04666666666666667,0,0,0.04666666666666667,93.33333333333334,0)" xlink:href="#aw"/></g><path d="M106-457h183v399h107V0H100v-58h117v-341H106v-58zm149-199c29 0 51 23 51 51s-22 52-51 52-52-24-52-52 23-51 52-51" id="aX"/><path d="M126-314c0 55 45 100 101 100s100-45 100-100-44-101-100-101-101 46-101 101zm11 199c9 36 35 35 92 35 52 0 107-6 155 13 49 20 71 59 71 99 0 61-55 140-210 140C85 172 38 114 38 64c0-36 26-70 75-101-29-15-37-42-37-61 0-29 19-60 52-88-42-27-68-74-68-124 0-133 184-217 279-118 35-30 81-45 127-41l9 59c-41-6-74 2-106 20 77 121-53 276-200 223-4 4-32 28-32 52zm107 233c53 0 145-29 145-81 0-20-11-48-54-53s-135-1-174-8c-52 25-92 93-12 127 35 14 74 15 95 15" id="aY"/><g id="r"><use transform="matrix(0.04666666666666667,0,0,0.04666666666666667,0,0)" xlink:href="#aO"/><use transform="matrix(0.04666666666666667,0,0,0.04666666666666667,23.333333333333336,0)" xlink:href="#aN"/><use transform="matrix(0.04666666666666667,0,0,0.04666666666666667,46.66666666666667,0)" xlink:href="#aH"/><use transform="matrix(0.04666666666666667,0,0,0.04666666666666667,70,0)" xlink:href="#aX"/><use transform="matrix(0.04666666666666667,0,0,0.04666666666666667,93.33333333333334,0)" xlink:href="#aS"/><use transform="matrix(0.04666666666666667,0,0,0.04666666666666667,116.6666666666667,0)" xlink:href="#aY"/></g><path d="M71-348h360v67H71v-67" id="aZ"/><path d="M313-624h59v390h80v62h-80V0h-73v-173H48v-51zm-13 111L117-234h183v-279" id="ba"/><g id="s"><use transform="matrix(0.04666666666666667,0,0,0.04666666666666667,0,0)" xlink:href="#at"/><use transform="matrix(0.04666666666666667,0,0,0.04666666666666667,23.333333333333336,0)" xlink:href="#aZ"/><use transform="matrix(0.04666666666666667,0,0,0.04666666666666667,46.66666666666667,0)" xlink:href="#ba"/></g><use transform="matrix(0.04666666666666667,0,0,0.04666666666666667,0,0)" xlink:href="#aK" id="t"/><g id="u"><use transform="matrix(0.04666666666666667,0,0,0.04666666666666667,0,0)" xlink:href="#az"/><use transform="matrix(0.04666666666666667,0,0,0.04666666666666667,23.333333333333336,0)" xlink:href="#aE"/><use transform="matrix(0.04666666666666667,0,0,0.04666666666666667,46.66666666666667,0)" xlink:href="#ax"/><use transform="matrix(0.04666666666666667,0,0,0.04666666666666667,70,0)" xlink:href="#aH"/><use transform="matrix(0.04666666666666667,0,0,0.04666666666666667,93.33333333333334,0)" xlink:href="#aP"/></g><use transform="matrix(0.04666666666666667,0,0,0.04666666666666667,0,0)" xlink:href="#aA" id="v"/><g id="w"><use transform="matrix(0.04666666666666667,0,0,0.04666666666666667,0,0)" xlink:href="#aX"/><use transform="matrix(0.04666666666666667,0,0,0.04666666666666667,23.333333333333336,0)" xlink:href="#aS"/><use transform="matrix(0.04666666666666667,0,0,0.04666666666666667,46.66666666666667,0)" xlink:href="#aN"/><use transform="matrix(0.04666666666666667,0,0,0.04666666666666667,70,0)" xlink:href="#aF"/><use transform="matrix(0.04666666666666667,0,0,0.04666666666666667,93.33333333333334,0)" xlink:href="#aY"/><use transform="matrix(0.04666666666666667,0,0,0.04666666666666667,116.6666666666667,0)" xlink:href="#aF"/><use transform="matrix(0.04666666666666667,0,0,0.04666666666666667,140.00000000000003,0)" xlink:href="#aH"/></g><path d="M25-139v-111l406-136L25-522v-111l500 169v156zM25 0v-108h500V0H25" id="bb"/><use transform="matrix(0.04666666666666667,0,0,0.04666666666666667,0,0)" xlink:href="#bb" id="x"/><use transform="matrix(0.04666666666666667,0,0,0.04666666666666667,0,0)" xlink:href="#aL" id="y"/><g id="z"><use transform="matrix(0.04666666666666667,0,0,0.04666666666666667,0,0)" xlink:href="#aV"/><use transform="matrix(0.04666666666666667,0,0,0.04666666666666667,23.333333333333336,0)" xlink:href="#ax"/><use transform="matrix(0.04666666666666667,0,0,0.04666666666666667,46.66666666666667,0)" xlink:href="#aU"/><use transform="matrix(0.04666666666666667,0,0,0.04666666666666667,70,0)" xlink:href="#aW"/><use transform="matrix(0.04666666666666667,0,0,0.04666666666666667,93.33333333333334,0)" xlink:href="#aF"/><use transform="matrix(0.04666666666666667,0,0,0.04666666666666667,116.6666666666667,0)" xlink:href="#aP"/></g><path d="M251-627c96 0 199 113 199 326C450-87 342 11 252 11 153 11 50-105 50-307c0-199 102-320 201-320zm98 142c-27-55-65-81-99-81-62 0-135 88-135 247 0 44 5 84 14 118zm23 67L152-138c27 55 66 85 103 85 55 0 130-66 130-240 0-48-5-90-13-125" id="bc"/><g id="A"><use transform="matrix(0.04688888888888878,0,0,0.04688888888888878,0,0)" xlink:href="#bc"/><use transform="matrix(0.04688888888888878,0,0,0.04688888888888878,23.44444444444439,0)" xlink:href="#aq"/><use transform="matrix(0.04688888888888878,0,0,0.04688888888888878,46.88888888888878,0)" xlink:href="#ax"/><use transform="matrix(0.04688888888888878,0,0,0.04688888888888878,70.33333333333317,0)" xlink:href="#at"/><use transform="matrix(0.04688888888888878,0,0,0.04688888888888878,93.77777777777756,0)" xlink:href="#aJ"/></g><g id="B"><use transform="matrix(0.04666666666666667,0,0,0.04666666666666667,0,0)" xlink:href="#bc"/><use transform="matrix(0.04666666666666667,0,0,0.04666666666666667,23.333333333333336,0)" xlink:href="#aq"/><use transform="matrix(0.04666666666666667,0,0,0.04666666666666667,46.66666666666667,0)" xlink:href="#aG"/><use transform="matrix(0.04666666666666667,0,0,0.04666666666666667,70,0)" xlink:href="#aA"/><use transform="matrix(0.04666666666666667,0,0,0.04666666666666667,93.33333333333334,0)" xlink:href="#az"/></g><path d="M432-584C350-397 277-203 214 0h-79c63-190 134-378 210-557H79v-66h353v39" id="bd"/><g id="C"><use transform="matrix(0.04666666666666667,0,0,0.04666666666666667,0,0)" xlink:href="#bc"/><use transform="matrix(0.04666666666666667,0,0,0.04666666666666667,23.333333333333336,0)" xlink:href="#aq"/><use transform="matrix(0.04666666666666667,0,0,0.04666666666666667,46.66666666666667,0)" xlink:href="#at"/><use transform="matrix(0.04666666666666667,0,0,0.04666666666666667,70,0)" xlink:href="#bd"/><use transform="matrix(0.04666666666666667,0,0,0.04666666666666667,93.33333333333334,0)" xlink:href="#aF"/></g><path d="M108 0H70L1-190h34L89-25l56-165h34" id="be"/><path d="M141-36C126-15 110 5 73 4 37 3 15-17 15-53c-1-64 63-63 125-63 3-35-9-54-41-54-24 1-41 7-42 31l-33-3c5-37 33-52 76-52 45 0 72 20 72 64v82c-1 20 7 32 28 27v20c-31 9-61-2-59-35zM48-53c0 20 12 33 32 33 41-3 63-29 60-74-43 2-92-5-92 41" id="bf"/><path d="M24 0v-261h32V0H24" id="bg"/><path d="M84 4C-5 8 30-112 23-190h32v120c0 31 7 50 39 49 72-2 45-101 50-169h31l1 190h-30c-1-10 1-25-2-33-11 22-28 36-60 37" id="bh"/><path d="M100-194c63 0 86 42 84 106H49c0 40 14 67 53 68 26 1 43-12 49-29l28 8c-11 28-37 45-77 45C44 4 14-33 15-96c1-61 26-98 85-98zm52 81c6-60-76-77-97-28-3 7-6 17-6 28h103" id="bi"/><g id="D"><use transform="matrix(0.1302469135802469,0,0,0.1302469135802469,0,0)" xlink:href="#be"/><use transform="matrix(0.1302469135802469,0,0,0.1302469135802469,23.444444444444443,0)" xlink:href="#bf"/><use transform="matrix(0.1302469135802469,0,0,0.1302469135802469,49.49382716049382,0)" xlink:href="#bg"/><use transform="matrix(0.1302469135802469,0,0,0.1302469135802469,59.78333333333333,0)" xlink:href="#bh"/><use transform="matrix(0.1302469135802469,0,0,0.1302469135802469,85.83271604938271,0)" xlink:href="#bi"/></g><path d="M115-194c55 1 70 41 70 98S169 2 115 4C84 4 66-9 55-30l1 105H24l-1-265h31l2 30c10-21 28-34 59-34zm-8 174c40 0 45-34 45-75s-6-73-45-74c-42 0-51 32-51 76 0 43 10 73 51 73" id="bj"/><path d="M100-194c62-1 85 37 85 99 1 63-27 99-86 99S16-35 15-95c0-66 28-99 85-99zM99-20c44 1 53-31 53-75 0-43-8-75-51-75s-53 32-53 75 10 74 51 75" id="bk"/><path d="M24-231v-30h32v30H24zM24 0v-190h32V0H24" id="bl"/><path d="M117-194c89-4 53 116 60 194h-32v-121c0-31-8-49-39-48C34-167 62-67 57 0H25l-1-190h30c1 10-1 24 2 32 11-22 29-35 61-36" id="bm"/><path d="M59-47c-2 24 18 29 38 22v24C64 9 27 4 27-40v-127H5v-23h24l9-43h21v43h35v23H59v120" id="bn"/><path d="M114-163C36-179 61-72 57 0H25l-1-190h30c1 12-1 29 2 39 6-27 23-49 58-41v29" id="bo"/><path d="M135-143c-3-34-86-38-87 0 15 53 115 12 119 90S17 21 10-45l28-5c4 36 97 45 98 0-10-56-113-15-118-90-4-57 82-63 122-42 12 7 21 19 24 35" id="bp"/><g id="E"><use transform="matrix(0.1302469135802469,0,0,0.1302469135802469,0,0)" xlink:href="#bj"/><use transform="matrix(0.1302469135802469,0,0,0.1302469135802469,26.04938271604938,0)" xlink:href="#bk"/><use transform="matrix(0.1302469135802469,0,0,0.1302469135802469,52.09876543209876,0)" xlink:href="#bl"/><use transform="matrix(0.1302469135802469,0,0,0.1302469135802469,62.388271604938275,0)" xlink:href="#bm"/><use transform="matrix(0.1302469135802469,0,0,0.1302469135802469,88.43765432098765,0)" xlink:href="#bn"/><use transform="matrix(0.1302469135802469,0,0,0.1302469135802469,101.46234567901234,0)" xlink:href="#bi"/><use transform="matrix(0.1302469135802469,0,0,0.1302469135802469,127.51172839506172,0)" xlink:href="#bo"/><use transform="matrix(0.1302469135802469,0,0,0.1302469135802469,143.0111111111111,0)" xlink:href="#bp"/></g><g id="F"><use transform="matrix(0.1302469135802469,0,0,0.1302469135802469,0,0)" xlink:href="#bn"/><use transform="matrix(0.1302469135802469,0,0,0.1302469135802469,13.02469135802469,0)" xlink:href="#bk"/></g><path d="M210-169c-67 3-38 105-44 169h-31v-121c0-29-5-50-35-48C34-165 62-65 56 0H25l-1-190h30c1 10-1 24 2 32 10-44 99-50 107 0 11-21 27-35 58-36 85-2 47 119 55 194h-31v-121c0-29-5-49-35-48" id="bq"/><path d="M179-190L93 31C79 59 56 82 12 73V49c39 6 53-20 64-50L1-190h34L92-34l54-156h33" id="br"/><g id="G"><use transform="matrix(0.1302469135802469,0,0,0.1302469135802469,0,0)" xlink:href="#bq"/><use transform="matrix(0.1302469135802469,0,0,0.1302469135802469,38.943827160493825,0)" xlink:href="#bi"/><use transform="matrix(0.1302469135802469,0,0,0.1302469135802469,64.9932098765432,0)" xlink:href="#bq"/><use transform="matrix(0.1302469135802469,0,0,0.1302469135802469,103.93703703703703,0)" xlink:href="#bk"/><use transform="matrix(0.1302469135802469,0,0,0.1302469135802469,129.9864197530864,0)" xlink:href="#bo"/><use transform="matrix(0.1302469135802469,0,0,0.1302469135802469,145.4858024691358,0)" xlink:href="#br"/></g><path d="M96-169c-40 0-48 33-48 73s9 75 48 75c24 0 41-14 43-38l32 2c-6 37-31 61-74 61-59 0-76-41-82-99-10-93 101-131 147-64 4 7 5 14 7 22l-32 3c-4-21-16-35-41-35" id="bs"/><g id="H"><use transform="matrix(0.1302469135802469,0,0,0.1302469135802469,0,0)" xlink:href="#bg"/><use transform="matrix(0.1302469135802469,0,0,0.1302469135802469,10.289506172839506,0)" xlink:href="#bk"/><use transform="matrix(0.1302469135802469,0,0,0.1302469135802469,36.33888888888889,0)" xlink:href="#bs"/><use transform="matrix(0.1302469135802469,0,0,0.1302469135802469,59.78333333333333,0)" xlink:href="#bf"/><use transform="matrix(0.1302469135802469,0,0,0.1302469135802469,85.83271604938271,0)" xlink:href="#bn"/><use transform="matrix(0.1302469135802469,0,0,0.1302469135802469,98.85740740740741,0)" xlink:href="#bl"/><use transform="matrix(0.1302469135802469,0,0,0.1302469135802469,109.14691358024692,0)" xlink:href="#bk"/><use transform="matrix(0.1302469135802469,0,0,0.1302469135802469,135.19629629629628,0)" xlink:href="#bm"/><use transform="matrix(0.1302469135802469,0,0,0.1302469135802469,161.24567901234565,0)" xlink:href="#bp"/></g><path d="M87 75C49 33 22-17 22-94c0-76 28-126 65-167h31c-38 41-64 92-64 168S80 34 118 75H87" id="bt"/><path d="M134-131c28 9 52 24 51 62-1 50-34 73-85 73S17-19 16-69c0-36 21-54 49-61-75-25-45-126 34-121 46 3 78 18 79 63 0 33-17 51-44 57zm-34-11c31 1 46-15 46-44 0-28-17-43-47-42-29 0-46 13-45 42 1 28 16 44 46 44zm1 122c35 0 51-18 51-52 0-30-18-46-53-46-33 0-51 17-51 47 0 34 19 51 53 51" id="bu"/><path d="M16-82v-28h88v28H16" id="bv"/><path d="M115-194c53 0 69 39 70 98 0 66-23 100-70 100C84 3 66-7 56-30L54 0H23l1-261h32v101c10-23 28-34 59-34zm-8 174c40 0 45-34 45-75 0-40-5-75-45-74-42 0-51 32-51 76 0 43 10 73 51 73" id="bw"/><g id="I"><use transform="matrix(0.1302469135802469,0,0,0.1302469135802469,0,0)" xlink:href="#bt"/><use transform="matrix(0.1302469135802469,0,0,0.1302469135802469,15.49938271604938,0)" xlink:href="#bu"/><use transform="matrix(0.1302469135802469,0,0,0.1302469135802469,41.54876543209876,0)" xlink:href="#bv"/><use transform="matrix(0.1302469135802469,0,0,0.1302469135802469,57.048148148148144,0)" xlink:href="#bw"/><use transform="matrix(0.1302469135802469,0,0,0.1302469135802469,83.09753086419752,0)" xlink:href="#br"/><use transform="matrix(0.1302469135802469,0,0,0.1302469135802469,106.54197530864197,0)" xlink:href="#bn"/><use transform="matrix(0.1302469135802469,0,0,0.1302469135802469,119.56666666666666,0)" xlink:href="#bi"/></g><path d="M85-194c31 0 48 13 60 33l-1-100h32l1 261h-30c-2-10 0-23-3-31C134-8 116 4 85 4 32 4 16-35 15-94c0-66 23-100 70-100zm9 24c-40 0-46 34-46 75 0 40 6 74 45 74 42 0 51-32 51-76 0-42-9-74-50-73" id="bx"/><path d="M33-261c38 41 65 92 65 168S71 34 33 75H2C39 34 66-17 66-93S39-220 2-261h31" id="by"/><g id="J"><use transform="matrix(0.1302469135802469,0,0,0.1302469135802469,0,0)" xlink:href="#bf"/><use transform="matrix(0.1302469135802469,0,0,0.1302469135802469,26.04938271604938,0)" xlink:href="#bx"/><use transform="matrix(0.1302469135802469,0,0,0.1302469135802469,52.09876543209876,0)" xlink:href="#bx"/><use transform="matrix(0.1302469135802469,0,0,0.1302469135802469,78.14814814814814,0)" xlink:href="#bo"/><use transform="matrix(0.1302469135802469,0,0,0.1302469135802469,93.64753086419752,0)" xlink:href="#bi"/><use transform="matrix(0.1302469135802469,0,0,0.1302469135802469,119.6969135802469,0)" xlink:href="#bp"/><use transform="matrix(0.1302469135802469,0,0,0.1302469135802469,143.14135802469133,0)" xlink:href="#bp"/><use transform="matrix(0.1302469135802469,0,0,0.1302469135802469,166.58580246913579,0)" xlink:href="#bi"/><use transform="matrix(0.1302469135802469,0,0,0.1302469135802469,192.63518518518515,0)" xlink:href="#bp"/><use transform="matrix(0.1302469135802469,0,0,0.1302469135802469,216.0796296296296,0)" xlink:href="#by"/></g><path d="M109-170H84l-4-78h32zm-65 0H19l-4-78h33" id="bz"/><g id="K"><use transform="matrix(0.24753086419753068,0,0,0.24753086419753068,0,0)" xlink:href="#bz"/><use transform="matrix(0.24753086419753068,0,0,0.24753086419753068,31.436419753086398,0)" xlink:href="#bf"/><use transform="matrix(0.24753086419753068,0,0,0.24753086419753068,80.94259259259253,0)" xlink:href="#bz"/></g><g id="L"><use transform="matrix(0.24753086419753068,0,0,0.24753086419753068,0,0)" xlink:href="#bz"/><use transform="matrix(0.24753086419753068,0,0,0.24753086419753068,31.436419753086398,0)" xlink:href="#bw"/><use transform="matrix(0.24753086419753068,0,0,0.24753086419753068,80.94259259259253,0)" xlink:href="#bz"/></g><g id="M"><use transform="matrix(0.24753086419753068,0,0,0.24753086419753068,0,0)" xlink:href="#bz"/><use transform="matrix(0.24753086419753068,0,0,0.24753086419753068,31.436419753086398,0)" xlink:href="#bs"/><use transform="matrix(0.24753086419753068,0,0,0.24753086419753068,75.99197530864191,0)" xlink:href="#bz"/></g><path d="M27 0v-27h64v-190l-56 39v-29l58-41h29v221h61V0H27" id="bA"/><use transform="matrix(0.1302469135802469,0,0,0.1302469135802469,0,0)" xlink:href="#bA" id="N"/><path d="M101-251c82-7 93 87 43 132L82-64C71-53 59-42 53-27h129V0H18c2-99 128-94 128-182 0-28-16-43-45-43s-46 15-49 41l-32-3c6-41 34-60 81-64" id="bB"/><use transform="matrix(0.1302469135802469,0,0,0.1302469135802469,0,0)" xlink:href="#bB" id="O"/><path d="M126-127c33 6 58 20 58 59 0 88-139 92-164 29-3-8-5-16-6-25l32-3c6 27 21 44 54 44 32 0 52-15 52-46 0-38-36-46-79-43v-28c39 1 72-4 72-42 0-27-17-43-46-43-28 0-47 15-49 41l-32-3c6-42 35-63 81-64 48-1 79 21 79 65 0 36-21 52-52 59" id="bC"/><use transform="matrix(0.1302469135802469,0,0,0.1302469135802469,0,0)" xlink:href="#bC" id="P"/><path d="M101-251c68 0 85 55 85 127S166 4 100 4C33 4 14-52 14-124c0-73 17-127 87-127zm-1 229c47 0 54-49 54-102s-4-102-53-102c-51 0-55 48-55 102 0 53 5 102 54 102" id="bD"/><use transform="matrix(0.1302469135802469,0,0,0.1302469135802469,0,0)" xlink:href="#bD" id="Q"/><g id="R"><use transform="matrix(0.04688888888888878,0,0,0.04688888888888878,0,0)" xlink:href="#bc"/><use transform="matrix(0.04688888888888878,0,0,0.04688888888888878,23.44444444444439,0)" xlink:href="#aq"/><use transform="matrix(0.04688888888888878,0,0,0.04688888888888878,46.88888888888878,0)" xlink:href="#aG"/><use transform="matrix(0.04688888888888878,0,0,0.04688888888888878,70.33333333333317,0)" xlink:href="#aA"/><use transform="matrix(0.04688888888888878,0,0,0.04688888888888878,93.77777777777756,0)" xlink:href="#az"/></g><g id="S"><use transform="matrix(0.04666666666666667,0,0,0.04666666666666667,0,0)" xlink:href="#bc"/><use transform="matrix(0.04666666666666667,0,0,0.04666666666666667,23.333333333333336,0)" xlink:href="#aq"/><use transform="matrix(0.04666666666666667,0,0,0.04666666666666667,46.66666666666667,0)" xlink:href="#aG"/><use transform="matrix(0.04666666666666667,0,0,0.04666666666666667,70,0)" xlink:href="#aA"/><use transform="matrix(0.04666666666666667,0,0,0.04666666666666667,93.33333333333334,0)" xlink:href="#aG"/></g><g id="T"><use transform="matrix(0.04666666666666667,0,0,0.04666666666666667,0,0)" xlink:href="#bc"/><use transform="matrix(0.04666666666666667,0,0,0.04666666666666667,23.333333333333336,0)" xlink:href="#aq"/><use transform="matrix(0.04666666666666667,0,0,0.04666666666666667,46.66666666666667,0)" xlink:href="#aG"/><use transform="matrix(0.04666666666666667,0,0,0.04666666666666667,70,0)" xlink:href="#aA"/><use transform="matrix(0.04666666666666667,0,0,0.04666666666666667,93.33333333333334,0)" xlink:href="#aF"/></g><path d="M158-156l-14 65h45v19h-49L124 0h-19l15-72H56L41 0H22l15-72H2v-19h39l14-65H11v-19h48l15-71h20l-16 71h64l16-71h19l-16 71h37v19h-40zm-83 0L61-91h63l14-65H75" id="bE"/><use transform="matrix(0.1302469135802469,0,0,0.1302469135802469,0,0)" xlink:href="#bE" id="U"/><path d="M101-234c-31-9-42 10-38 44h38v23H63V0H32v-167H5v-23h27c-7-52 17-82 69-68v24" id="bF"/><g id="V"><use transform="matrix(0.1302469135802469,0,0,0.1302469135802469,0,0)" xlink:href="#bk"/><use transform="matrix(0.1302469135802469,0,0,0.1302469135802469,26.04938271604938,0)" xlink:href="#bF"/></g><g id="W"><use transform="matrix(0.1302469135802469,0,0,0.1302469135802469,0,0)" xlink:href="#bw"/><use transform="matrix(0.1302469135802469,0,0,0.1302469135802469,26.04938271604938,0)" xlink:href="#br"/><use transform="matrix(0.1302469135802469,0,0,0.1302469135802469,49.49382716049382,0)" xlink:href="#bn"/><use transform="matrix(0.1302469135802469,0,0,0.1302469135802469,62.51851851851851,0)" xlink:href="#bi"/><use transform="matrix(0.1302469135802469,0,0,0.1302469135802469,88.5679012345679,0)" xlink:href="#bp"/></g><g id="X"><use transform="matrix(0.1302469135802469,0,0,0.1302469135802469,0,0)" xlink:href="#bf"/><use transform="matrix(0.1302469135802469,0,0,0.1302469135802469,26.04938271604938,0)" xlink:href="#bx"/><use transform="matrix(0.1302469135802469,0,0,0.1302469135802469,52.09876543209876,0)" xlink:href="#bx"/><use transform="matrix(0.1302469135802469,0,0,0.1302469135802469,78.14814814814814,0)" xlink:href="#bo"/><use transform="matrix(0.1302469135802469,0,0,0.1302469135802469,93.64753086419752,0)" xlink:href="#bi"/><use transform="matrix(0.1302469135802469,0,0,0.1302469135802469,119.6969135802469,0)" xlink:href="#bp"/><use transform="matrix(0.1302469135802469,0,0,0.1302469135802469,143.14135802469133,0)" xlink:href="#bp"/></g><path d="M106-169C34-169 62-67 57 0H25v-261h32l-1 103c12-21 28-36 61-36 89 0 53 116 60 194h-32v-121c2-32-8-49-39-48" id="bG"/><path d="M141 0L90-78 38 0H4l68-98-65-92h35l48 74 47-74h35l-64 92 68 98h-35" id="bH"/><g id="Y"><use transform="matrix(0.1302469135802469,0,0,0.1302469135802469,0,0)" xlink:href="#bt"/><use transform="matrix(0.1302469135802469,0,0,0.1302469135802469,15.49938271604938,0)" xlink:href="#bG"/><use transform="matrix(0.1302469135802469,0,0,0.1302469135802469,41.54876543209876,0)" xlink:href="#bi"/><use transform="matrix(0.1302469135802469,0,0,0.1302469135802469,67.59814814814814,0)" xlink:href="#bH"/><use transform="matrix(0.1302469135802469,0,0,0.1302469135802469,91.04259259259258,0)" xlink:href="#by"/></g><g id="Z"><use transform="matrix(0.1302469135802469,0,0,0.1302469135802469,0,0)" xlink:href="#be"/><use transform="matrix(0.1302469135802469,0,0,0.1302469135802469,23.444444444444443,0)" xlink:href="#bf"/><use transform="matrix(0.1302469135802469,0,0,0.1302469135802469,49.49382716049382,0)" xlink:href="#bg"/><use transform="matrix(0.1302469135802469,0,0,0.1302469135802469,59.78333333333333,0)" xlink:href="#bh"/><use transform="matrix(0.1302469135802469,0,0,0.1302469135802469,85.83271604938271,0)" xlink:href="#bi"/></g><g id="aa"><use transform="matrix(0.1302469135802469,0,0,0.1302469135802469,0,0)" xlink:href="#bt"/><use transform="matrix(0.1302469135802469,0,0,0.1302469135802469,15.49938271604938,0)" xlink:href="#bA"/></g><g id="ab"><use transform="matrix(0.1302469135802469,0,0,0.1302469135802469,0,0)" xlink:href="#bw"/><use transform="matrix(0.1302469135802469,0,0,0.1302469135802469,26.04938271604938,0)" xlink:href="#br"/><use transform="matrix(0.1302469135802469,0,0,0.1302469135802469,49.49382716049382,0)" xlink:href="#bn"/><use transform="matrix(0.1302469135802469,0,0,0.1302469135802469,62.51851851851851,0)" xlink:href="#bi"/><use transform="matrix(0.1302469135802469,0,0,0.1302469135802469,88.5679012345679,0)" xlink:href="#by"/></g><use transform="matrix(0.24753086419753068,0,0,0.24753086419753068,0,0)" xlink:href="#bB" id="ac"/><use transform="matrix(0.1302469135802469,0,0,0.1302469135802469,0,0)" xlink:href="#bu" id="ad"/><g id="ae"><use transform="matrix(0.04688888888888878,0,0,0.04688888888888878,0,0)" xlink:href="#bc"/><use transform="matrix(0.04688888888888878,0,0,0.04688888888888878,23.44444444444439,0)" xlink:href="#aq"/><use transform="matrix(0.04688888888888878,0,0,0.04688888888888878,46.88888888888878,0)" xlink:href="#at"/><use transform="matrix(0.04688888888888878,0,0,0.04688888888888878,70.33333333333317,0)" xlink:href="#bd"/><use transform="matrix(0.04688888888888878,0,0,0.04688888888888878,93.77777777777756,0)" xlink:href="#aF"/></g><g id="af"><use transform="matrix(0.1302469135802469,0,0,0.1302469135802469,0,0)" xlink:href="#bt"/><use transform="matrix(0.1302469135802469,0,0,0.1302469135802469,15.49938271604938,0)" xlink:href="#bu"/></g><g id="ag"><use transform="matrix(0.1302469135802469,0,0,0.1302469135802469,0,0)" xlink:href="#bw"/><use transform="matrix(0.1302469135802469,0,0,0.1302469135802469,26.04938271604938,0)" xlink:href="#br"/><use transform="matrix(0.1302469135802469,0,0,0.1302469135802469,49.49382716049382,0)" xlink:href="#bn"/><use transform="matrix(0.1302469135802469,0,0,0.1302469135802469,62.51851851851851,0)" xlink:href="#bi"/><use transform="matrix(0.1302469135802469,0,0,0.1302469135802469,88.5679012345679,0)" xlink:href="#bp"/><use transform="matrix(0.1302469135802469,0,0,0.1302469135802469,112.01234567901234,0)" xlink:href="#by"/></g><path d="M33 0v-38h34V0H33" id="bI"/><g id="ah"><use transform="matrix(0.24753086419753068,0,0,0.24753086419753068,0,0)" xlink:href="#bA"/><use transform="matrix(0.24753086419753068,0,0,0.24753086419753068,49.506172839506135,0)" xlink:href="#bI"/></g><g id="ai"><use transform="matrix(0.04688888888888878,0,0,0.04688888888888878,0,0)" xlink:href="#bc"/><use transform="matrix(0.04688888888888878,0,0,0.04688888888888878,23.44444444444439,0)" xlink:href="#aq"/><use transform="matrix(0.04688888888888878,0,0,0.04688888888888878,46.88888888888878,0)" xlink:href="#bc"/><use transform="matrix(0.04688888888888878,0,0,0.04688888888888878,70.33333333333317,0)" xlink:href="#bc"/><use transform="matrix(0.04688888888888878,0,0,0.04688888888888878,93.77777777777756,0)" xlink:href="#bc"/></g><path d="M470-46c0 31-26 57-59 57s-59-25-59-57c0-31 26-58 59-58s59 27 59 58zm-345 0c0 31-26 57-59 57S7-14 7-46c0-31 26-58 59-58s59 27 59 58zm173 0c0 31-26 57-59 57s-60-25-60-57c0-31 27-58 60-58s59 27 59 58" id="bJ"/><use transform="matrix(0.04666666666666667,0,0,0.04666666666666667,0,0)" xlink:href="#bJ" id="aj"/><g id="ak"><use transform="matrix(0.04666666666666667,0,0,0.04666666666666667,0,0)" xlink:href="#bc"/><use transform="matrix(0.04666666666666667,0,0,0.04666666666666667,23.333333333333336,0)" xlink:href="#aq"/><use transform="matrix(0.04666666666666667,0,0,0.04666666666666667,46.66666666666667,0)" xlink:href="#at"/><use transform="matrix(0.04666666666666667,0,0,0.04666666666666667,70,0)" xlink:href="#bd"/><use transform="matrix(0.04666666666666667,0,0,0.04666666666666667,93.33333333333334,0)" xlink:href="#aF"/></g><g id="al"><use transform="matrix(0.04666666666666667,0,0,0.04666666666666667,0,0)" xlink:href="#bc"/><use transform="matrix(0.04666666666666667,0,0,0.04666666666666667,23.333333333333336,0)" xlink:href="#aq"/><use transform="matrix(0.04666666666666667,0,0,0.04666666666666667,46.66666666666667,0)" xlink:href="#ax"/><use transform="matrix(0.04666666666666667,0,0,0.04666666666666667,70,0)" xlink:href="#at"/><use transform="matrix(0.04666666666666667,0,0,0.04666666666666667,93.33333333333334,0)" xlink:href="#aJ"/></g><g id="am"><use transform="matrix(0.1302469135802469,0,0,0.1302469135802469,0,0)" xlink:href="#bq"/><use transform="matrix(0.1302469135802469,0,0,0.1302469135802469,38.943827160493825,0)" xlink:href="#bi"/><use transform="matrix(0.1302469135802469,0,0,0.1302469135802469,64.9932098765432,0)" xlink:href="#bq"/><use transform="matrix(0.1302469135802469,0,0,0.1302469135802469,103.93703703703703,0)" xlink:href="#bk"/><use transform="matrix(0.1302469135802469,0,0,0.1302469135802469,129.9864197530864,0)" xlink:href="#bo"/><use transform="matrix(0.1302469135802469,0,0,0.1302469135802469,145.4858024691358,0)" xlink:href="#br"/></g><g id="an"><use transform="matrix(0.04666666666666667,0,0,0.04666666666666667,0,0)" xlink:href="#bc"/><use transform="matrix(0.04666666666666667,0,0,0.04666666666666667,23.333333333333336,0)" xlink:href="#aq"/><use transform="matrix(0.04666666666666667,0,0,0.04666666666666667,46.66666666666667,0)" xlink:href="#aG"/><use transform="matrix(0.04666666666666667,0,0,0.04666666666666667,70,0)" xlink:href="#aA"/><use transform="matrix(0.04666666666666667,0,0,0.04666666666666667,93.33333333333334,0)" xlink:href="#az"/></g><g id="ao"><use transform="matrix(0.04666666666666667,0,0,0.04666666666666667,0,0)" xlink:href="#bc"/><use transform="matrix(0.04666666666666667,0,0,0.04666666666666667,23.333333333333336,0)" xlink:href="#aq"/><use transform="matrix(0.04666666666666667,0,0,0.04666666666666667,46.66666666666667,0)" xlink:href="#aG"/><use transform="matrix(0.04666666666666667,0,0,0.04666666666666667,70,0)" xlink:href="#aA"/><use transform="matrix(0.04666666666666667,0,0,0.04666666666666667,93.33333333333334,0)" xlink:href="#aG"/></g><g id="ap"><use transform="matrix(0.04666666666666667,0,0,0.04666666666666667,0,0)" xlink:href="#bc"/><use transform="matrix(0.04666666666666667,0,0,0.04666666666666667,23.333333333333336,0)" xlink:href="#aq"/><use transform="matrix(0.04666666666666667,0,0,0.04666666666666667,46.66666666666667,0)" xlink:href="#aG"/><use transform="matrix(0.04666666666666667,0,0,0.04666666666666667,70,0)" xlink:href="#aA"/><use transform="matrix(0.04666666666666667,0,0,0.04666666666666667,93.33333333333334,0)" xlink:href="#aF"/></g></defs></g></svg>